<svg id="Layer_1" data-name="Layer 1" xmlns="http://www.w3.org/2000/svg" viewBox="0 0 260 337"><defs><style>.cls-1{fill:#cea076;stroke:#000;stroke-miterlimit:10;}.cls-1,.cls-4{stroke-linecap:round;stroke-width:3px;}.cls-2{fill:#826240;}.cls-3{opacity:0.2;}.cls-4{fill:none;stroke:#230100;stroke-linejoin:round;}</style></defs><title>hair</title><path class="cls-1" d="M233.4194,87.8983c-4.089-.7958.5661-17.5351-3.3188-19.1509-1.5-.6237-3.17-.38-4.756-.6368a13.2713,13.2713,0,0,1-5.6759-2.8285,43.0846,43.0846,0,0,1-10.7272-11.973c-1.3835-2.2784-9.1074-4.7548-11.0764-6.43-3.9624-3.3708-9.61-2.5461-14.4213-1.0282-.4287.1353-14.6508,5.3587-14.6508,5.3587.8525-19.5685-17.3516-33.5755-29.1815-38.094s-24.75-3.8749-37.1691-2.1326a97.4848,97.4848,0,0,0-22.5156,5.42C69.1009,20.692,59.4243,27.99,50.805,36.389,37.22,49.6267,25.3606,68.0217,27.2752,87.8983c-4.1845,10.189-3.2243,47.1125-3.6805,58.286-.2215,5.4241,2.9654,16.6214,3.86,23.6448.3538,2.7771-4.4238,18.859-2.428,21.5629,3.6933,5.0035,4.0249,10.8791,5.6279,16.833.4661,1.7311,7.17.1937,7.17.1937-.3547-20.2328,1.6141-40.0466,1.2594-60.2794-.2093-11.9358-.374-24.1861,3.303-35.4149.9722-2.72,12.3067-8.3738,14.4008-10.1681,6.4744-5.5478,5.09-9.6263,13.0241-11.9082,5.4228-1.56,22.9485-3.68,27.7694-6.83,36.13-7.1119,84.0087,5.9021,96.4136,10.0855a18.186,18.186,0,0,1,5.7906,2.76c2.022,1.6276,3.3714,4.0521,4.6686,6.4128,3.4176,6.2195,2.8352,15.4391,6.2529,21.6586,3.312,6.0274,6.6429-.8714,8.906,5.7193,4.0333,11.7463,4.49,24.5589,4.9016,37.11.6118,18.6744-3.4883,37.1568-2.8764,55.8312l9.5913-2.2263a4.3487,4.3487,0,0,0,2.27-3.4208c.9508-10.9111-.0607-21.6846,1.1877-32.6165a152.0781,152.0781,0,0,1,2.6371-17.2265c1.0947-4.7042,2.6365-9.281,3.5232-14.0381a104.4944,104.4944,0,0,0,1.3224-13.8863C242.9775,123.9844,242.2152,101.2625,233.4194,87.8983Z"/><path class="cls-1" d="M67.8691,47.2131a23.0345,23.0345,0,0,1,23.5326,21.59"/><path class="cls-1" d="M89.3625,45.0475A22.6587,22.6587,0,0,1,109.076,66.2694"/><path class="cls-1" d="M108.8408,41.5344A25.0822,25.0822,0,0,1,120.5473,53.306a42.1749,42.1749,0,0,1,4.0087,16.3278"/><path class="cls-2" d="M176.0371,145.7684c-8.5772,0-30.3484,1.4621-30.3484,5.0742s18.8371-.2322,32.2995-.2322c11.1165,0,28.3972,3.9487,28.3972,2.8122S189.8814,145.7684,176.0371,145.7684Z"/><path class="cls-2" d="M83.9629,145.7684c8.5772,0,30.3484,1.4621,30.3484,5.0742s-18.8371-.2322-32.3-.2322c-11.1165,0-28.3972,3.9487-28.3972,2.8122S70.1186,145.7684,83.9629,145.7684Z"/><g class="cls-3"><path class="cls-4" d="M89.9692,221.3253c-2.44,1.1023-4.1364,3.35-5.6878,5.5325a39.584,39.584,0,0,0-4.191,6.9276c-1.7237,3.9353-2.2291,8.2784-2.715,12.5471"/><path class="cls-4" d="M170.0308,221.3253c2.44,1.1023,4.1364,3.35,5.6878,5.5325a39.584,39.584,0,0,1,4.191,6.9276c1.7237,3.9353,2.2291,8.2784,2.715,12.5471"/></g></svg>