<svg id="Layer_1" data-name="Layer 1" xmlns="http://www.w3.org/2000/svg" viewBox="0 0 260 337"><defs><style>.cls-1{fill:#262528;}.cls-2{fill:none;stroke:#020202;stroke-linecap:round;stroke-linejoin:round;stroke-width:3px;}</style></defs><title>hair</title><path class="cls-1" d="M229.1429,186.7217V149.3469c0-54.7551-39.0546-100.1428-99.1429-100.1428S30.8571,94.5918,30.8571,149.3469v37.3748L36.8,185.0088c-1.9009-12.3047.0991-26.3047,10.0991-34.3047-6.179-9.6276.1625-39.9511,8.0813-50.9756s46.4187-.5244,75.4187-.5244,64.4219-10.5,72.3406.5244,14.26,41.348,8.0813,50.9756c10,8,12,22,10.0991,34.3047Z"/><path class="cls-1" d="M205.275,157.2554c-4.5589-1.863-14.63-9.4279-25.4635-5.853-10.4323,3.4424-25.1515,7.6142-25.1515,7.6142s-5.7063,3.3129-7.5484-.4076c-.3847-.7771-2.0216-6.7241,3.8372-7.9963,19.0853-4.1441,16.9183-6.71,36.3587-6.5251,1.5537.0148,7.8692,2.5927,9.4883,3.6508,4.3011,2.8112,7.7175,2.9285,10.5955,7.0113Z"/><path class="cls-1" d="M54.725,157.2554c4.5589-1.863,14.63-9.4279,25.4635-5.853,10.4323,3.4424,25.1515,7.6142,25.1515,7.6142s5.7063,3.3129,7.5484-.4076c.3847-.7771,2.0216-6.7241-3.8372-7.9963-19.0853-4.1441-16.9183-6.71-36.3587-6.5251-1.5537.0148-7.8692,2.5927-9.4883,3.6508-4.3011,2.8112-7.7175,2.9285-10.5955,7.0113Z"/><path class="cls-2" d="M85.0024,234.2041c.39,1.1266-.2667,2.3311-.97,3.294a30.8863,30.8863,0,0,1-5.1706,5.3913,12.7664,12.7664,0,0,0-2.811,2.8193c-1.0634,1.6992-1.1325,3.8152-1.17,5.8194"/><path class="cls-2" d="M174.9976,234.2041c-.39,1.1266.2667,2.3311.97,3.294a30.8863,30.8863,0,0,0,5.1706,5.3913,12.7664,12.7664,0,0,1,2.811,2.8193c1.0634,1.6992,1.1325,3.8152,1.17,5.8194"/><path class="cls-1" d="M129.8988,303.2041c-18.5787,0-35.1943-3.4574-46.3025-8.8951a9.808,9.808,0,0,0-2.1419,5.8951c0,11.0456,21.6893,20,48.4444,20s48.4445-8.9544,48.4445-20a9.8075,9.8075,0,0,0-2.142-5.8951C165.0932,299.7467,148.4776,303.2041,129.8988,303.2041Z"/><rect class="cls-1" x="122.2625" y="284.2041" width="15.2727" height="28" rx="7.6364"/></svg>