<?xml version="1.0" encoding="utf-8"?>
<!-- Generator: Adobe Illustrator 23.0.1, SVG Export Plug-In . SVG Version: 6.00 Build 0)  -->
<svg version="1.1" id="Layer_1" xmlns="http://www.w3.org/2000/svg" xmlns:xlink="http://www.w3.org/1999/xlink" x="0px" y="0px"
	 viewBox="0 0 260 337" style="enable-background:new 0 0 260 337;" xml:space="preserve">
<style type="text/css">
	.st0{fill:#E2BDAC;stroke:#020202;stroke-width:3;stroke-miterlimit:10;}
	.st1{fill:none;stroke:#230100;stroke-width:3;stroke-linecap:round;stroke-linejoin:round;stroke-miterlimit:10;}
	.st2{fill:#FFFFFF;}
	.st3{fill:#738C80;}
	.st4{fill:#080607;}
	.st5{fill:#FBFBF2;}
	.st6{fill:#FFFFFF;stroke:#020202;stroke-width:3;stroke-miterlimit:10;}
	.st7{fill:#13232B;stroke:#000000;stroke-width:3;stroke-miterlimit:10;}
	.st8{fill:#00505D;stroke:#000000;stroke-width:3;stroke-miterlimit:10;}
	.st9{fill:#372C28;stroke:#020202;stroke-width:3;stroke-miterlimit:10;}
	.st10{fill:#CEA076;stroke:#000000;stroke-width:3;stroke-linecap:round;stroke-miterlimit:10;}
	.st11{fill:#603813;}
	.st12{fill:#2D1C17;}
	.st13{fill:#2D1C17;stroke:#000000;stroke-width:3;stroke-linecap:round;stroke-miterlimit:10;}
	.st14{opacity:0.5;}
	.st15{fill:#372C28;}
	.st16{fill:#826240;}
	.st17{opacity:0.2;}
	.st18{fill:#AA835F;stroke:#000000;stroke-width:3;stroke-linecap:round;stroke-miterlimit:10;}
	.st19{fill:none;stroke:#000000;stroke-width:3;stroke-linecap:round;stroke-miterlimit:10;}
	.st20{fill:#826240;stroke:#000000;stroke-linecap:round;stroke-miterlimit:10;}
	.st21{fill:#262528;}
	.st22{fill:none;stroke:#020202;stroke-width:3;stroke-linecap:round;stroke-linejoin:round;stroke-miterlimit:10;}
	.st23{fill:#68362A;}
	.st24{fill:#68362A;stroke:#000000;stroke-width:3;stroke-linecap:round;stroke-miterlimit:10;}
	.st25{fill:#230100;}
	.st26{fill:#603813;stroke:#000000;stroke-width:3;stroke-linecap:round;stroke-miterlimit:10;}
	.st27{fill:#ED7032;}
	.st28{fill:#ED7032;stroke:#000000;stroke-width:3;stroke-linecap:round;stroke-miterlimit:10;}
</style>
<g>
	<g>
		<path class="st27" d="M52.96,165.22c3.73-2.79,6.82-2.88,12.01-5.15c9.61-4.19,19.43-8.87,19.43-8.87l29.31,11h0.89
			c0,0,1.19-1.97,2.12-6c0.19-0.84-1.26-7.46-6.76-7.46c-17.93,0-25.56-7.54-25.56-7.54s-24.44,11.54-25.69,12.92
			c-3.31,3.66-6.35,4.5-8.14,9.1L52.96,165.22z"/>
	</g>
	<g>
		<path class="st27" d="M207.35,165.22c-3.73-2.79-6.82-2.88-12.01-5.15c-9.61-4.19-19.43-8.87-19.43-8.87l-29.31,11h-0.89
			c0,0-1.19-1.97-2.12-6c-0.19-0.84,1.26-7.46,6.76-7.46c17.93,0,25.56-7.54,25.56-7.54s24.44,11.54,25.69,12.92
			c3.31,3.66,6.35,4.5,8.14,9.1L207.35,165.22z"/>
	</g>
</g>
<path class="st28" d="M23.68,133.52c0.46-11.17,24.52-55.68,31.54-64.97c9.53-12.61,22.58-21.47,33.72-26.47
	c2.03-1.25,4.35-2.09,6.6-2.96c10.25-3.98,7.9-9.66,16.57-16.42c1.27-0.99,26.52-12.47,26-14c2.47,4.68,7.94,20.14,11.88,23.68
	c0.53,0.48,1.08,0.94,1.64,1.39c13.09,4.2,42.48,3.46,41.65,22.55c0,0,0.87,6.5,1.3,6.36c4.81-1.52,6.46,2.49,10.42,5.87
	c1.97,1.68,13.96,21.02,18.05,21.82c8.8,13.36,14.03,20.95,13.22,36.95c-0.23,4.65-0.47,9.32-1.32,13.89
	c-0.89,4.76-2.43,9.33-3.52,14.04c-1.31,5.64-1.87,16.93-2.82,27.84c-0.13,1.45-1,2.73-2.27,3.42l-6.59,2.23
	c-0.61-18.67,0.01-59.2-4.03-70.94c-2.26-6.59-11.74-11.16-15.16-17.38c-1.3-2.36-6.55-15.11-8.57-16.74
	c-1.71-1.37-27.1-8.57-29.12-9.26c-12.4-4.18-25.76-4.57-61.89,2.55c-4.82,3.15-29.65,6.46-35.07,8.02
	c-7.93,2.28-6.55,9.36-13.02,14.91c-2.09,1.79-7.76,8.8-8.73,11.52c-3.68,11.23-6.18,12.13-5.97,24.06
	c0.35,20.23-0.43,30.36-0.07,50.59c0,0-7.89-0.77-8.36-2.5c-1.6-5.95-0.85-23.62-1.2-26.4C27.64,150.14,23.45,138.95,23.68,133.52z"
	/>
</svg>
