<?xml version="1.0" encoding="utf-8"?>
<!-- Generator: Adobe Illustrator 23.0.1, SVG Export Plug-In . SVG Version: 6.00 Build 0)  -->
<svg version="1.1" id="Layer_1" xmlns="http://www.w3.org/2000/svg" xmlns:xlink="http://www.w3.org/1999/xlink" x="0px" y="0px"
	 viewBox="0 0 260 337" style="enable-background:new 0 0 260 337;" xml:space="preserve">
<style type="text/css">
	.st0{fill:#E2BDAC;stroke:#020202;stroke-width:3;stroke-miterlimit:10;}
	.st1{fill:none;stroke:#230100;stroke-width:3;stroke-linecap:round;stroke-linejoin:round;stroke-miterlimit:10;}
	.st2{fill:#FFFFFF;}
	.st3{fill:#738C80;}
	.st4{fill:#080607;}
	.st5{fill:#FBFBF2;}
	.st6{fill:#FFFFFF;stroke:#020202;stroke-width:3;stroke-miterlimit:10;}
	.st7{fill:#13232B;stroke:#000000;stroke-width:3;stroke-miterlimit:10;}
	.st8{fill:#00505D;stroke:#000000;stroke-width:3;stroke-miterlimit:10;}
	.st9{fill:#372C28;stroke:#020202;stroke-width:3;stroke-miterlimit:10;}
	.st10{fill:#CEA076;stroke:#000000;stroke-width:3;stroke-linecap:round;stroke-miterlimit:10;}
	.st11{fill:#603813;}
	.st12{fill:#2D1C17;}
	.st13{fill:#2D1C17;stroke:#000000;stroke-width:3;stroke-linecap:round;stroke-miterlimit:10;}
	.st14{opacity:0.5;}
	.st15{fill:#372C28;}
	.st16{fill:#826240;}
	.st17{opacity:0.2;}
	.st18{fill:none;stroke:#000000;stroke-width:3;stroke-linecap:round;stroke-miterlimit:10;}
	.st19{fill:#AA835F;stroke:#000000;stroke-width:3;stroke-linecap:round;stroke-miterlimit:10;}
	.st20{fill:#826240;stroke:#000000;stroke-linecap:round;stroke-miterlimit:10;}
	.st21{fill:#262528;}
	.st22{fill:none;stroke:#020202;stroke-width:3;stroke-linecap:round;stroke-linejoin:round;stroke-miterlimit:10;}
	.st23{fill:#68362A;}
	.st24{fill:#68362A;stroke:#000000;stroke-width:3;stroke-linecap:round;stroke-miterlimit:10;}
	.st25{fill:#230100;}
	.st26{fill:#603813;stroke:#000000;stroke-width:3;stroke-linecap:round;stroke-miterlimit:10;}
</style>
<g>
	<g>
		<path class="st11" d="M52.96,165.22c3.73-2.79,6.82-2.88,12.01-5.15c9.61-4.19,20.27-6.17,30.69-4.98
			c10.03,1.15,18.05,7.1,18.05,7.1h0.89c0,0,1.19-1.97,2.12-6c0.19-0.84-1.26-7.46-6.76-7.46c-17.93,0-26.04-4.51-43.44-0.2
			c-1.39,0.34-6.55,4.2-7.8,5.58c-3.31,3.66-6.35,4.5-8.14,9.1L52.96,165.22z"/>
	</g>
	<g>
		<path class="st11" d="M207.35,165.22c-3.73-2.79-6.82-2.88-12.01-5.15c-9.61-4.19-20.27-6.17-30.69-4.98
			c-10.03,1.15-18.05,7.1-18.05,7.1h-0.89c0,0-1.19-1.97-2.12-6c-0.19-0.84,1.26-7.46,6.76-7.46c17.93,0,26.04-4.51,43.44-0.2
			c1.39,0.34,6.55,4.2,7.8,5.58c3.31,3.66,6.35,4.5,8.14,9.1L207.35,165.22z"/>
	</g>
</g>
<g>
	<g>
		<g>
			<path class="st12" d="M86.29,240.97c1.09,0,1.09-1.69,0-1.69C85.2,239.28,85.2,240.97,86.29,240.97L86.29,240.97z"/>
		</g>
	</g>
	<g>
		<g>
			<path class="st12" d="M90.94,240.22c1.09,0,1.09-1.69,0-1.69C89.85,238.53,89.85,240.22,90.94,240.22L90.94,240.22z"/>
		</g>
	</g>
	<g>
		<g>
			<path class="st12" d="M95.8,237.8c1.09,0,1.09-1.69,0-1.69C94.71,236.12,94.71,237.8,95.8,237.8L95.8,237.8z"/>
		</g>
	</g>
	<g>
		<g>
			<path class="st12" d="M95.18,269.35c1.09,0,1.09-1.69,0-1.69C94.09,267.66,94.09,269.35,95.18,269.35L95.18,269.35z"/>
		</g>
	</g>
	<g>
		<g>
			<path class="st12" d="M90.01,245.24c1.09,0,1.09-1.69,0-1.69C88.92,243.56,88.92,245.24,90.01,245.24L90.01,245.24z"/>
		</g>
	</g>
	<g>
		<g>
			<path class="st12" d="M84.61,246.36c1.09,0,1.09-1.69,0-1.69C83.52,244.67,83.52,246.36,84.61,246.36L84.61,246.36z"/>
		</g>
	</g>
	<g>
		<g>
			<path class="st12" d="M159.08,276.56c1.09,0,1.09-1.69,0-1.69C157.99,274.87,157.99,276.56,159.08,276.56L159.08,276.56z"/>
		</g>
	</g>
	<g>
		<g>
			<path class="st12" d="M138.48,241.41c1.09,0,1.09-1.69,0-1.69C137.39,239.72,137.39,241.41,138.48,241.41L138.48,241.41z"/>
		</g>
	</g>
	<g>
		<g>
			<path class="st12" d="M119.29,281.52c1.09,0,1.09-1.69,0-1.69C118.2,279.84,118.2,281.52,119.29,281.52L119.29,281.52z"/>
		</g>
	</g>
	<g>
		<g>
			<path class="st12" d="M67.77,260.17c1.09,0,1.09-1.69,0-1.69C66.69,258.49,66.69,260.17,67.77,260.17L67.77,260.17z"/>
		</g>
	</g>
	<g>
		<g>
			<path class="st12" d="M88.77,268.57c1.09,0,1.09-1.69,0-1.69C87.69,266.88,87.69,268.57,88.77,268.57L88.77,268.57z"/>
		</g>
	</g>
	<g>
		<g>
			<path class="st12" d="M96.22,276.38c1.09,0,1.09-1.69,0-1.69C95.13,274.7,95.13,276.38,96.22,276.38L96.22,276.38z"/>
		</g>
	</g>
	<g>
		<g>
			<path class="st12" d="M94.17,284.11c1.09,0,1.09-1.69,0-1.69C93.08,282.42,93.08,284.11,94.17,284.11L94.17,284.11z"/>
		</g>
	</g>
	<g>
		<g>
			<path class="st12" d="M90.82,285.41c1.09,0,1.09-1.69,0-1.69C89.73,283.72,89.73,285.41,90.82,285.41L90.82,285.41z"/>
		</g>
	</g>
	<g>
		<g>
			<path class="st12" d="M57.7,227.36c1.09,0,1.09-1.69,0-1.69C56.62,225.67,56.62,227.36,57.7,227.36L57.7,227.36z"/>
		</g>
	</g>
	<g>
		<g>
			<path class="st12" d="M64.59,231.27c1.09,0,1.09-1.69,0-1.69C63.5,229.58,63.5,231.27,64.59,231.27L64.59,231.27z"/>
		</g>
	</g>
	<g>
		<g>
			<path class="st12" d="M64.81,237.38c1.09,0,1.09-1.69,0-1.69C63.73,235.7,63.73,237.38,64.81,237.38L64.81,237.38z"/>
		</g>
	</g>
	<g>
		<g>
			<path class="st12" d="M60.12,241.69c1.09,0,1.09-1.69,0-1.69C59.04,240,59.03,241.69,60.12,241.69L60.12,241.69z"/>
		</g>
	</g>
	<g>
		<g>
			<path class="st12" d="M57.89,250.99c1.09,0,1.09-1.69,0-1.69C56.8,249.3,56.8,250.99,57.89,250.99L57.89,250.99z"/>
		</g>
	</g>
	<g>
		<g>
			<path class="st12" d="M57.89,255.45c1.09,0,1.09-1.69,0-1.69C56.8,253.77,56.8,255.45,57.89,255.45L57.89,255.45z"/>
		</g>
	</g>
	<g>
		<g>
			<path class="st12" d="M61.98,261.04c1.09,0,1.09-1.69,0-1.69C60.9,259.35,60.9,261.04,61.98,261.04L61.98,261.04z"/>
		</g>
	</g>
	<g>
		<g>
			<path class="st12" d="M58.67,232.17c1.09,0,1.09-1.69,0-1.69C57.59,230.49,57.59,232.17,58.67,232.17L58.67,232.17z"/>
		</g>
	</g>
	<g>
		<g>
			<path class="st12" d="M70.73,235.36c1.09,0,1.09-1.69,0-1.69C69.64,233.67,69.64,235.36,70.73,235.36L70.73,235.36z"/>
		</g>
	</g>
	<g>
		<g>
			<path class="st12" d="M68.49,240.47c1.09,0,1.09-1.69,0-1.69C67.41,238.78,67.41,240.47,68.49,240.47L68.49,240.47z"/>
		</g>
	</g>
	<g>
		<g>
			<path class="st12" d="M66.26,245.78c1.09,0,1.09-1.69,0-1.69C65.18,244.09,65.17,245.78,66.26,245.78L66.26,245.78z"/>
		</g>
	</g>
	<g>
		<g>
			<path class="st12" d="M64.44,252.12c1.09,0,1.09-1.69,0-1.69C63.35,250.43,63.35,252.12,64.44,252.12L64.44,252.12z"/>
		</g>
	</g>
	<g>
		<g>
			<path class="st12" d="M214.48,239.47c1.09,0,1.09-1.69,0-1.69C213.39,237.78,213.39,239.47,214.48,239.47L214.48,239.47z"/>
		</g>
	</g>
	<g>
		<g>
			<path class="st12" d="M68.12,265.13c1.09,0,1.09-1.69,0-1.69C67.04,263.44,67.03,265.13,68.12,265.13L68.12,265.13z"/>
		</g>
	</g>
	<g>
		<g>
			<path class="st12" d="M61.98,247.72c1.09,0,1.09-1.69,0-1.69C60.9,246.03,60.9,247.72,61.98,247.72L61.98,247.72z"/>
		</g>
	</g>
	<g>
		<g>
			<path class="st12" d="M77.94,242.14c1.09,0,1.09-1.69,0-1.69C76.86,240.45,76.86,242.14,77.94,242.14L77.94,242.14z"/>
		</g>
	</g>
	<g>
		<g>
			<path class="st12" d="M68.49,249.22c1.09,0,1.09-1.69,0-1.69C67.41,247.53,67.41,249.22,68.49,249.22L68.49,249.22z"/>
		</g>
	</g>
	<g>
		<g>
			<path class="st12" d="M64.03,257.04c1.09,0,1.09-1.69,0-1.69C62.94,255.35,62.94,257.04,64.03,257.04L64.03,257.04z"/>
		</g>
	</g>
	<g>
		<g>
			<path class="st12" d="M41.78,219.63c1.09,0,1.09-1.69,0-1.69C40.7,217.94,40.69,219.63,41.78,219.63L41.78,219.63z"/>
		</g>
	</g>
	<g>
		<g>
			<path class="st12" d="M48.67,223.54c1.09,0,1.09-1.69,0-1.69C47.58,221.85,47.58,223.54,48.67,223.54L48.67,223.54z"/>
		</g>
	</g>
	<g>
		<g>
			<path class="st12" d="M48.67,229.49c1.09,0,1.09-1.69,0-1.69C47.58,227.8,47.58,229.49,48.67,229.49L48.67,229.49z"/>
		</g>
	</g>
	<g>
		<g>
			<path class="st12" d="M44.2,233.95c1.09,0,1.09-1.69,0-1.69C43.12,232.27,43.11,233.95,44.2,233.95L44.2,233.95z"/>
		</g>
	</g>
	<g>
		<g>
			<path class="st12" d="M52.57,258.54c1.09,0,1.09-1.69,0-1.69C51.49,256.85,51.49,258.54,52.57,258.54L52.57,258.54z"/>
		</g>
	</g>
	<g>
		<g>
			<path class="st12" d="M43.42,229.13c1.09,0,1.09-1.69,0-1.69C42.33,227.44,42.33,229.13,43.42,229.13L43.42,229.13z"/>
		</g>
	</g>
	<g>
		<g>
			<path class="st12" d="M45.65,240.97c1.09,0,1.09-1.69,0-1.69C44.56,239.28,44.56,240.97,45.65,240.97L45.65,240.97z"/>
		</g>
	</g>
	<g>
		<g>
			<path class="st12" d="M56.25,264.02c1.09,0,1.09-1.69,0-1.69C55.17,262.34,55.17,264.02,56.25,264.02L56.25,264.02z"/>
		</g>
	</g>
	<g>
		<g>
			<path class="st12" d="M52.57,225.61c1.09,0,1.09-1.69,0-1.69C51.49,223.92,51.49,225.61,52.57,225.61L52.57,225.61z"/>
		</g>
	</g>
	<g>
		<g>
			<path class="st12" d="M54.81,230.23c1.09,0,1.09-1.69,0-1.69C53.72,228.55,53.72,230.23,54.81,230.23L54.81,230.23z"/>
		</g>
	</g>
	<g>
		<g>
			<path class="st12" d="M50.34,238.05c1.09,0,1.09-1.69,0-1.69C49.25,236.36,49.25,238.05,50.34,238.05L50.34,238.05z"/>
		</g>
	</g>
	<g>
		<g>
			<path class="st12" d="M48.11,247.35c1.09,0,1.09-1.69,0-1.69C47.02,245.66,47.02,247.35,48.11,247.35L48.11,247.35z"/>
		</g>
	</g>
	<g>
		<g>
			<path class="st12" d="M48.11,251.81c1.09,0,1.09-1.69,0-1.69C47.02,250.13,47.02,251.81,48.11,251.81L48.11,251.81z"/>
		</g>
	</g>
	<g>
		<g>
			<path class="st12" d="M114.48,300.35c1.09,0,1.09-1.69,0-1.69C113.39,298.66,113.39,300.35,114.48,300.35L114.48,300.35z"/>
		</g>
	</g>
	<g>
		<g>
			<path class="st12" d="M56.44,237.38c1.09,0,1.09-1.69,0-1.69C55.35,235.7,55.35,237.38,56.44,237.38L56.44,237.38z"/>
		</g>
	</g>
	<g>
		<g>
			<path class="st12" d="M52.57,241.49c1.09,0,1.09-1.69,0-1.69C51.49,239.8,51.49,241.49,52.57,241.49L52.57,241.49z"/>
		</g>
	</g>
	<g>
		<g>
			<path class="st12" d="M53.36,253.58c1.09,0,1.09-1.69,0-1.69C52.27,251.89,52.27,253.58,53.36,253.58L53.36,253.58z"/>
		</g>
	</g>
	<g>
		<g>
			<path class="st12" d="M61.8,266.34c1.09,0,1.09-1.69,0-1.69C60.71,264.65,60.71,266.34,61.8,266.34L61.8,266.34z"/>
		</g>
	</g>
	<g>
		<g>
			<path class="st12" d="M61.8,270.8c1.09,0,1.09-1.69,0-1.69C60.71,269.12,60.71,270.8,61.8,270.8L61.8,270.8z"/>
		</g>
	</g>
	<g>
		<g>
			<path class="st12" d="M65.89,276.38c1.09,0,1.09-1.69,0-1.69C64.8,274.7,64.8,276.38,65.89,276.38L65.89,276.38z"/>
		</g>
	</g>
	<g>
		<g>
			<path class="st12" d="M74.08,246.71c1.09,0,1.09-1.69,0-1.69C72.99,245.02,72.99,246.71,74.08,246.71L74.08,246.71z"/>
		</g>
	</g>
	<g>
		<g>
			<path class="st12" d="M81.56,271.86c1.09,0,1.09-1.69,0-1.69C80.48,270.17,80.48,271.86,81.56,271.86L81.56,271.86z"/>
		</g>
	</g>
	<g>
		<g>
			<path class="st12" d="M80.96,249.22c1.09,0,1.09-1.69,0-1.69C79.87,247.53,79.87,249.22,80.96,249.22L80.96,249.22z"/>
		</g>
	</g>
	<g>
		<g>
			<path class="st12" d="M76.49,261.04c1.09,0,1.09-1.69,0-1.69C75.41,259.35,75.41,261.04,76.49,261.04L76.49,261.04z"/>
		</g>
	</g>
	<g>
		<g>
			<path class="st12" d="M76.91,269.61c1.09,0,1.09-1.69,0-1.69C75.82,267.92,75.82,269.61,76.91,269.61L76.91,269.61z"/>
		</g>
	</g>
	<g>
		<g>
			<path class="st12" d="M74.26,274.8c1.09,0,1.09-1.69,0-1.69C73.18,273.12,73.17,274.8,74.26,274.8L74.26,274.8z"/>
		</g>
	</g>
	<g>
		<g>
			<path class="st12" d="M77.35,278.38c1.09,0,1.09-1.69,0-1.69C76.27,276.7,76.27,278.38,77.35,278.38L77.35,278.38z"/>
		</g>
	</g>
	<g>
		<g>
			<path class="st12" d="M69.57,255.54c1.09,0,1.09-1.69,0-1.69C68.49,253.85,68.48,255.54,69.57,255.54L69.57,255.54z"/>
		</g>
	</g>
	<g>
		<g>
			<path class="st12" d="M80.12,257.87c1.09,0,1.09-1.69,0-1.69C79.04,256.18,79.03,257.87,80.12,257.87L80.12,257.87z"/>
		</g>
	</g>
	<g>
		<g>
			<path class="st12" d="M83.16,265.3c1.09,0,1.09-1.69,0-1.69C82.08,263.62,82.07,265.3,83.16,265.3L83.16,265.3z"/>
		</g>
	</g>
	<g>
		<g>
			<path class="st12" d="M73.66,252.12c1.09,0,1.09-1.69,0-1.69C72.58,250.43,72.58,252.12,73.66,252.12L73.66,252.12z"/>
		</g>
	</g>
	<g>
		<g>
			<path class="st12" d="M73.42,281.59c1.09,0,1.09-1.69,0-1.69C72.34,279.91,72.34,281.59,73.42,281.59L73.42,281.59z"/>
		</g>
	</g>
	<g>
		<g>
			<path class="st12" d="M54.42,246.06c1.09,0,1.09-1.69,0-1.69C53.34,244.37,53.34,246.06,54.42,246.06L54.42,246.06z"/>
		</g>
	</g>
	<g>
		<g>
			<path class="st12" d="M127.28,302.85c1.09,0,1.09-1.69,0-1.69C126.2,301.16,126.2,302.85,127.28,302.85L127.28,302.85z"/>
		</g>
	</g>
	<g>
		<g>
			<path class="st12" d="M68.17,227.76c1.09,0,1.09-1.69,0-1.69C67.08,226.07,67.08,227.76,68.17,227.76L68.17,227.76z"/>
		</g>
	</g>
	<g>
		<g>
			<path class="st12" d="M68.05,270.66c1.09,0,1.09-1.69,0-1.69C66.97,268.98,66.96,270.66,68.05,270.66L68.05,270.66z"/>
		</g>
	</g>
	<g>
		<g>
			<path class="st12" d="M100.28,287.47c1.09,0,1.09-1.69,0-1.69C99.19,285.78,99.19,287.47,100.28,287.47L100.28,287.47z"/>
		</g>
	</g>
	<g>
		<g>
			<path class="st12" d="M133.77,240.61c1.09,0,1.09-1.69,0-1.69C132.68,238.92,132.68,240.61,133.77,240.61L133.77,240.61z"/>
		</g>
	</g>
	<g>
		<g>
			<path class="st12" d="M101.73,240.31c1.09,0,1.09-1.69,0-1.69C100.64,238.63,100.64,240.31,101.73,240.31L101.73,240.31z"/>
		</g>
	</g>
	<g>
		<g>
			<path class="st12" d="M106.38,239.57c1.09,0,1.09-1.69,0-1.69C105.29,237.88,105.29,239.57,106.38,239.57L106.38,239.57z"/>
		</g>
	</g>
	<g>
		<g>
			<path class="st12" d="M174.89,275.27c1.09,0,1.09-1.69,0-1.69C173.8,273.58,173.8,275.27,174.89,275.27L174.89,275.27z"/>
		</g>
	</g>
	<g>
		<g>
			<path class="st12" d="M113.18,237.88c1.09,0,1.09-1.69,0-1.69C112.1,236.2,112.09,237.88,113.18,237.88L113.18,237.88z"/>
		</g>
	</g>
	<g>
		<g>
			<path class="st12" d="M105.45,244.59c1.09,0,1.09-1.69,0-1.69C104.36,242.91,104.36,244.59,105.45,244.59L105.45,244.59z"/>
		</g>
	</g>
	<g>
		<g>
			<path class="st12" d="M98.05,244.71c1.09,0,1.09-1.69,0-1.69C96.97,243.02,96.96,244.71,98.05,244.71L98.05,244.71z"/>
		</g>
	</g>
	<g>
		<g>
			<path class="st12" d="M110.6,241.67c1.09,0,1.09-1.69,0-1.69C109.52,239.99,109.52,241.67,110.6,241.67L110.6,241.67z"/>
		</g>
	</g>
	<g>
		<g>
			<path class="st12" d="M89.73,279.87c1.09,0,1.09-1.69,0-1.69C88.64,278.18,88.64,279.87,89.73,279.87L89.73,279.87z"/>
		</g>
	</g>
	<g>
		<g>
			<path class="st12" d="M79.66,231.73c1.09,0,1.09-1.69,0-1.69C78.57,230.05,78.57,231.73,79.66,231.73L79.66,231.73z"/>
		</g>
	</g>
	<g>
		<g>
			<path class="st12" d="M109.61,280.45c1.09,0,1.09-1.69,0-1.69C108.52,278.77,108.52,280.45,109.61,280.45L109.61,280.45z"/>
		</g>
	</g>
	<g>
		<g>
			<path class="st12" d="M99.61,281.11c1.09,0,1.09-1.69,0-1.69C98.52,279.42,98.52,281.11,99.61,281.11L99.61,281.11z"/>
		</g>
	</g>
	<g>
		<g>
			<path class="st12" d="M104.49,277.01c1.09,0,1.09-1.69,0-1.69C103.41,275.32,103.41,277.01,104.49,277.01L104.49,277.01z"/>
		</g>
	</g>
	<g>
		<g>
			<path class="st12" d="M85.49,283.62c1.09,0,1.09-1.69,0-1.69C84.41,281.93,84.41,283.62,85.49,283.62L85.49,283.62z"/>
		</g>
	</g>
	<g>
		<g>
			<path class="st12" d="M114.03,284.43c1.09,0,1.09-1.69,0-1.69C112.94,282.74,112.94,284.43,114.03,284.43L114.03,284.43z"/>
		</g>
	</g>
	<g>
		<g>
			<path class="st12" d="M118.04,243.02c1.09,0,1.09-1.69,0-1.69C116.95,241.34,116.95,243.02,118.04,243.02L118.04,243.02z"/>
		</g>
	</g>
	<g>
		<g>
			<path class="st12" d="M170.32,272.35c1.09,0,1.09-1.69,0-1.69C169.24,270.66,169.24,272.35,170.32,272.35L170.32,272.35z"/>
		</g>
	</g>
	<g>
		<g>
			<path class="st12" d="M128.31,285.63c1.09,0,1.09-1.69,0-1.69C127.22,283.94,127.22,285.63,128.31,285.63L128.31,285.63z"/>
		</g>
	</g>
	<g>
		<g>
			<path class="st12" d="M132.96,284.88c1.09,0,1.09-1.69,0-1.69C131.87,283.2,131.87,284.88,132.96,284.88L132.96,284.88z"/>
		</g>
	</g>
	<g>
		<g>
			<path class="st12" d="M152.9,289.35c1.09,0,1.09-1.69,0-1.69C151.81,287.66,151.81,289.35,152.9,289.35L152.9,289.35z"/>
		</g>
	</g>
	<g>
		<g>
			<path class="st12" d="M140.35,287.13c1.09,0,1.09-1.69,0-1.69C139.26,285.44,139.26,287.13,140.35,287.13L140.35,287.13z"/>
		</g>
	</g>
	<g>
		<g>
			<path class="st12" d="M131.03,291.91c1.09,0,1.09-1.69,0-1.69C129.94,290.22,129.94,291.91,131.03,291.91L131.03,291.91z"/>
		</g>
	</g>
	<g>
		<g>
			<path class="st12" d="M118.97,285.85c1.09,0,1.09-1.69,0-1.69C117.88,284.16,117.88,285.85,118.97,285.85L118.97,285.85z"/>
		</g>
	</g>
	<g>
		<g>
			<path class="st12" d="M146.07,302.35c1.09,0,1.09-1.69,0-1.69C144.98,300.66,144.98,302.35,146.07,302.35L146.07,302.35z"/>
		</g>
	</g>
	<g>
		<g>
			<path class="st12" d="M144.62,288.34c1.09,0,1.09-1.69,0-1.69C143.53,286.65,143.53,288.34,144.62,288.34L144.62,288.34z"/>
		</g>
	</g>
	<g>
		<g>
			<path class="st12" d="M143.17,297.71c1.09,0,1.09-1.69,0-1.69C142.08,296.02,142.08,297.71,143.17,297.71L143.17,297.71z"/>
		</g>
	</g>
	<g>
		<g>
			<path class="st12" d="M110.54,290.29c1.09,0,1.09-1.69,0-1.69C109.45,288.6,109.45,290.29,110.54,290.29L110.54,290.29z"/>
		</g>
	</g>
	<g>
		<g>
			<path class="st12" d="M104.22,299.73c1.09,0,1.09-1.69,0-1.69C103.13,298.05,103.13,299.73,104.22,299.73L104.22,299.73z"/>
		</g>
	</g>
	<g>
		<g>
			<path class="st12" d="M102.89,292.5c1.09,0,1.09-1.69,0-1.69C101.8,290.81,101.8,292.5,102.89,292.5L102.89,292.5z"/>
		</g>
	</g>
	<g>
		<g>
			<path class="st12" d="M168.33,292.31c1.09,0,1.09-1.69,0-1.69C167.25,290.63,167.24,292.31,168.33,292.31L168.33,292.31z"/>
		</g>
	</g>
	<g>
		<g>
			<path class="st12" d="M111.28,297.04c1.09,0,1.09-1.69,0-1.69C110.2,295.35,110.2,297.04,111.28,297.04L111.28,297.04z"/>
		</g>
	</g>
	<g>
		<g>
			<path class="st12" d="M149.94,298.34c1.09,0,1.09-1.69,0-1.69C148.85,296.65,148.85,298.34,149.94,298.34L149.94,298.34z"/>
		</g>
	</g>
	<g>
		<g>
			<path class="st12" d="M85.28,235.69c1.09,0,1.09-1.69,0-1.69C84.2,234,84.2,235.69,85.28,235.69L85.28,235.69z"/>
		</g>
	</g>
	<g>
		<g>
			<path class="st12" d="M175.17,232.59c1.09,0,1.09-1.69,0-1.69C174.08,230.91,174.08,232.59,175.17,232.59L175.17,232.59z"/>
		</g>
	</g>
	<g>
		<g>
			<path class="st12" d="M204.6,236.61c1.09,0,1.09-1.69,0-1.69C203.51,234.92,203.51,236.61,204.6,236.61L204.6,236.61z"/>
		</g>
	</g>
	<g>
		<g>
			<path class="st12" d="M162.55,289.88c1.09,0,1.09-1.69,0-1.69C161.47,288.2,161.47,289.88,162.55,289.88L162.55,289.88z"/>
		</g>
	</g>
	<g>
		<g>
			<path class="st12" d="M189.11,244.38c1.09,0,1.09-1.69,0-1.69C188.02,242.7,188.02,244.38,189.11,244.38L189.11,244.38z"/>
		</g>
	</g>
	<g>
		<g>
			<path class="st12" d="M171.34,239.94c1.09,0,1.09-1.69,0-1.69C170.25,238.25,170.25,239.94,171.34,239.94L171.34,239.94z"/>
		</g>
	</g>
	<g>
		<g>
			<path class="st12" d="M167.21,236.13c1.09,0,1.09-1.69,0-1.69C166.12,234.44,166.12,236.13,167.21,236.13L167.21,236.13z"/>
		</g>
	</g>
	<g>
		<g>
			<path class="st12" d="M146.63,243.15c1.09,0,1.09-1.69,0-1.69C145.55,241.46,145.55,243.15,146.63,243.15L146.63,243.15z"/>
		</g>
	</g>
	<g>
		<g>
			<path class="st12" d="M124.36,246.56c1.09,0,1.09-1.69,0-1.69C123.28,244.87,123.27,246.56,124.36,246.56L124.36,246.56z"/>
		</g>
	</g>
	<g>
		<g>
			<path class="st12" d="M141.24,245.76c1.09,0,1.09-1.69,0-1.69C140.15,244.07,140.15,245.76,141.24,245.76L141.24,245.76z"/>
		</g>
	</g>
	<g>
		<g>
			<path class="st12" d="M127.24,241.99c1.09,0,1.09-1.69,0-1.69C126.15,240.3,126.15,241.99,127.24,241.99L127.24,241.99z"/>
		</g>
	</g>
	<g>
		<g>
			<path class="st12" d="M118.73,294.71c1.09,0,1.09-1.69,0-1.69C117.64,293.02,117.64,294.71,118.73,294.71L118.73,294.71z"/>
		</g>
	</g>
	<g>
		<g>
			<path class="st12" d="M120.22,299.36c1.09,0,1.09-1.69,0-1.69C119.13,297.67,119.13,299.36,120.22,299.36L120.22,299.36z"/>
		</g>
	</g>
	<g>
		<g>
			<path class="st12" d="M92.3,274.77c1.09,0,1.09-1.69,0-1.69C91.22,273.08,91.21,274.77,92.3,274.77L92.3,274.77z"/>
		</g>
	</g>
	<g>
		<g>
			<path class="st12" d="M106.38,288.97c1.09,0,1.09-1.69,0-1.69C105.29,287.28,105.29,288.97,106.38,288.97L106.38,288.97z"/>
		</g>
	</g>
	<g>
		<g>
			<path class="st12" d="M76.8,238.01c1.09,0,1.09-1.69,0-1.69C75.71,236.32,75.71,238.01,76.8,238.01L76.8,238.01z"/>
		</g>
	</g>
	<g>
		<g>
			<path class="st12" d="M174.45,280.31c1.09,0,1.09-1.69,0-1.69C173.36,278.63,173.36,280.31,174.45,280.31L174.45,280.31z"/>
		</g>
	</g>
	<g>
		<g>
			<path class="st12" d="M125.61,296.94c1.09,0,1.09-1.69,0-1.69C124.52,295.25,124.52,296.94,125.61,296.94L125.61,296.94z"/>
		</g>
	</g>
	<g>
		<g>
			<path class="st12" d="M135.49,302.85c1.09,0,1.09-1.69,0-1.69C134.41,301.16,134.41,302.85,135.49,302.85L135.49,302.85z"/>
		</g>
	</g>
	<g>
		<g>
			<path class="st12" d="M193.68,238.17c1.09,0,1.09-1.69,0-1.69C192.59,236.49,192.59,238.17,193.68,238.17L193.68,238.17z"/>
		</g>
	</g>
	<g>
		<g>
			<path class="st12" d="M155.42,295.44c1.09,0,1.09-1.69,0-1.69C154.33,293.75,154.33,295.44,155.42,295.44L155.42,295.44z"/>
		</g>
	</g>
	<g>
		<g>
			<path class="st12" d="M152.22,241.41c1.09,0,1.09-1.69,0-1.69C151.13,239.72,151.13,241.41,152.22,241.41L152.22,241.41z"/>
		</g>
	</g>
	<g>
		<g>
			<path class="st12" d="M156.87,240.66c1.09,0,1.09-1.69,0-1.69C155.78,238.98,155.78,240.66,156.87,240.66L156.87,240.66z"/>
		</g>
	</g>
	<g>
		<g>
			<path class="st12" d="M161.73,238.24c1.09,0,1.09-1.69,0-1.69C160.64,236.56,160.64,238.24,161.73,238.24L161.73,238.24z"/>
		</g>
	</g>
	<g>
		<g>
			<path class="st12" d="M162.55,242.72c1.09,0,1.09-1.69,0-1.69C161.47,241.03,161.47,242.72,162.55,242.72L162.55,242.72z"/>
		</g>
	</g>
	<g>
		<g>
			<path class="st12" d="M150.54,245.8c1.09,0,1.09-1.69,0-1.69C149.45,244.12,149.45,245.8,150.54,245.8L150.54,245.8z"/>
		</g>
	</g>
	<g>
		<g>
			<path class="st12" d="M134.35,294.8c1.09,0,1.09-1.69,0-1.69C133.27,293.12,133.27,294.8,134.35,294.8L134.35,294.8z"/>
		</g>
	</g>
	<g>
		<g>
			<path class="st12" d="M198.7,226.01c1.09,0,1.09-1.69,0-1.69C197.62,224.32,197.62,226.01,198.7,226.01L198.7,226.01z"/>
		</g>
	</g>
	<g>
		<g>
			<path class="st12" d="M198.15,265.83c1.09,0,1.09-1.69,0-1.69C197.06,264.14,197.06,265.83,198.15,265.83L198.15,265.83z"/>
		</g>
	</g>
	<g>
		<g>
			<path class="st12" d="M167.1,283.55c1.09,0,1.09-1.69,0-1.69C166.01,281.86,166.01,283.55,167.1,283.55L167.1,283.55z"/>
		</g>
	</g>
	<g>
		<g>
			<path class="st12" d="M147.75,282.85c1.09,0,1.09-1.69,0-1.69C146.66,281.16,146.66,282.85,147.75,282.85L147.75,282.85z"/>
		</g>
	</g>
	<g>
		<g>
			<path class="st12" d="M159.43,283.23c1.09,0,1.09-1.69,0-1.69C158.35,281.55,158.34,283.23,159.43,283.23L159.43,283.23z"/>
		</g>
	</g>
	<g>
		<g>
			<path class="st12" d="M185.76,237.95c1.09,0,1.09-1.69,0-1.69C184.67,236.27,184.67,237.95,185.76,237.95L185.76,237.95z"/>
		</g>
	</g>
	<g>
		<g>
			<path class="st12" d="M184.77,228.85c1.09,0,1.09-1.69,0-1.69C183.69,227.16,183.69,228.85,184.77,228.85L184.77,228.85z"/>
		</g>
	</g>
	<g>
		<g>
			<path class="st12" d="M189.42,240.19c1.09,0,1.09-1.69,0-1.69C188.34,238.5,188.34,240.19,189.42,240.19L189.42,240.19z"/>
		</g>
	</g>
	<g>
		<g>
			<path class="st12" d="M191.28,225.69c1.09,0,1.09-1.69,0-1.69C190.2,224,190.2,225.69,191.28,225.69L191.28,225.69z"/>
		</g>
	</g>
	<g>
		<g>
			<path class="st12" d="M194.72,232.17c1.09,0,1.09-1.69,0-1.69C193.63,230.49,193.63,232.17,194.72,232.17L194.72,232.17z"/>
		</g>
	</g>
	<g>
		<g>
			<path class="st12" d="M188.49,233.13c1.09,0,1.09-1.69,0-1.69C187.41,231.44,187.41,233.13,188.49,233.13L188.49,233.13z"/>
		</g>
	</g>
	<g>
		<g>
			<path class="st12" d="M180.2,238.16c1.09,0,1.09-1.69,0-1.69C179.12,236.48,179.11,238.16,180.2,238.16L180.2,238.16z"/>
		</g>
	</g>
	<g>
		<g>
			<path class="st12" d="M183.1,245.97c1.09,0,1.09-1.69,0-1.69C182.01,244.28,182.01,245.97,183.1,245.97L183.1,245.97z"/>
		</g>
	</g>
	<g>
		<g>
			<path class="st12" d="M181.26,251.91c1.09,0,1.09-1.69,0-1.69C180.18,250.22,180.17,251.91,181.26,251.91L181.26,251.91z"/>
		</g>
	</g>
	<g>
		<g>
			<path class="st12" d="M167.26,277.06c1.09,0,1.09-1.69,0-1.69C166.18,275.37,166.17,277.06,167.26,277.06L167.26,277.06z"/>
		</g>
	</g>
	<g>
		<g>
			<path class="st12" d="M178.26,259.45c1.09,0,1.09-1.69,0-1.69C177.18,257.77,177.17,259.45,178.26,259.45L178.26,259.45z"/>
		</g>
	</g>
	<g>
		<g>
			<path class="st12" d="M185.7,271.27c1.09,0,1.09-1.69,0-1.69C184.62,269.58,184.62,271.27,185.7,271.27L185.7,271.27z"/>
		</g>
	</g>
	<g>
		<g>
			<path class="st12" d="M183.66,274.99c1.09,0,1.09-1.69,0-1.69C182.57,273.3,182.57,274.99,183.66,274.99L183.66,274.99z"/>
		</g>
	</g>
	<g>
		<g>
			<path class="st12" d="M181.34,264.42c1.09,0,1.09-1.69,0-1.69C180.25,262.73,180.25,264.42,181.34,264.42L181.34,264.42z"/>
		</g>
	</g>
	<g>
		<g>
			<path class="st12" d="M183.66,255.64c1.09,0,1.09-1.69,0-1.69C182.57,253.95,182.57,255.64,183.66,255.64L183.66,255.64z"/>
		</g>
	</g>
	<g>
		<g>
			<path class="st12" d="M164,300.85c1.09,0,1.09-1.69,0-1.69C162.92,299.16,162.92,300.85,164,300.85L164,300.85z"/>
		</g>
	</g>
	<g>
		<g>
			<path class="st12" d="M190.54,262.15c1.09,0,1.09-1.69,0-1.69C189.45,260.46,189.45,262.15,190.54,262.15L190.54,262.15z"/>
		</g>
	</g>
	<g>
		<g>
			<path class="st12" d="M194.49,270.61c1.09,0,1.09-1.69,0-1.69C193.41,268.92,193.41,270.61,194.49,270.61L194.49,270.61z"/>
		</g>
	</g>
	<g>
		<g>
			<path class="st12" d="M204.59,224.85c1.09,0,1.09-1.69,0-1.69C203.5,223.16,203.5,224.85,204.59,224.85L204.59,224.85z"/>
		</g>
	</g>
	<g>
		<g>
			<path class="st12" d="M211.24,227.11c1.09,0,1.09-1.69,0-1.69C210.15,225.42,210.15,227.11,211.24,227.11L211.24,227.11z"/>
		</g>
	</g>
	<g>
		<g>
			<path class="st12" d="M211.1,221.69c1.09,0,1.09-1.69,0-1.69C210.01,220,210.01,221.69,211.1,221.69L211.1,221.69z"/>
		</g>
	</g>
	<g>
		<g>
			<path class="st12" d="M216.27,223.19c1.09,0,1.09-1.69,0-1.69C215.18,221.5,215.18,223.19,216.27,223.19L216.27,223.19z"/>
		</g>
	</g>
	<g>
		<g>
			<path class="st12" d="M207.31,232.13c1.09,0,1.09-1.69,0-1.69C206.22,230.44,206.22,232.13,207.31,232.13L207.31,232.13z"/>
		</g>
	</g>
	<g>
		<g>
			<path class="st12" d="M210.88,236.61c1.09,0,1.09-1.69,0-1.69C209.79,234.92,209.79,236.61,210.88,236.61L210.88,236.61z"/>
		</g>
	</g>
	<g>
		<g>
			<path class="st12" d="M209.24,250.91c1.09,0,1.09-1.69,0-1.69C208.15,249.22,208.15,250.91,209.24,250.91L209.24,250.91z"/>
		</g>
	</g>
	<g>
		<g>
			<path class="st12" d="M207.86,243.17c1.09,0,1.09-1.69,0-1.69C206.77,241.49,206.77,243.17,207.86,243.17L207.86,243.17z"/>
		</g>
	</g>
	<g>
		<g>
			<path class="st12" d="M214.93,230.67c1.09,0,1.09-1.69,0-1.69C213.84,228.99,213.84,230.67,214.93,230.67L214.93,230.67z"/>
		</g>
	</g>
	<g>
		<g>
			<path class="st12" d="M202.91,230.24c1.09,0,1.09-1.69,0-1.69C201.83,228.56,201.83,230.24,202.91,230.24L202.91,230.24z"/>
		</g>
	</g>
	<g>
		<g>
			<path class="st12" d="M199.07,236.47c1.09,0,1.09-1.69,0-1.69C197.98,234.78,197.98,236.47,199.07,236.47L199.07,236.47z"/>
		</g>
	</g>
	<g>
		<g>
			<path class="st12" d="M202.91,241.97c1.09,0,1.09-1.69,0-1.69C201.83,240.28,201.83,241.97,202.91,241.97L202.91,241.97z"/>
		</g>
	</g>
	<g>
		<g>
			<path class="st12" d="M196.59,249.41c1.09,0,1.09-1.69,0-1.69C195.5,247.72,195.5,249.41,196.59,249.41L196.59,249.41z"/>
		</g>
	</g>
	<g>
		<g>
			<path class="st12" d="M198.08,254.06c1.09,0,1.09-1.69,0-1.69C196.99,252.37,196.99,254.06,198.08,254.06L198.08,254.06z"/>
		</g>
	</g>
	<g>
		<g>
			<path class="st12" d="M198.08,259.45c1.09,0,1.09-1.69,0-1.69C196.99,257.77,196.99,259.45,198.08,259.45L198.08,259.45z"/>
		</g>
	</g>
	<g>
		<g>
			<path class="st12" d="M203.52,264.27c1.09,0,1.09-1.69,0-1.69C202.43,262.58,202.43,264.27,203.52,264.27L203.52,264.27z"/>
		</g>
	</g>
	<g>
		<g>
			<path class="st12" d="M203.47,270.99c1.09,0,1.09-1.69,0-1.69C202.39,269.3,202.38,270.99,203.47,270.99L203.47,270.99z"/>
		</g>
	</g>
	<g>
		<g>
			<path class="st12" d="M200.12,272.29c1.09,0,1.09-1.69,0-1.69C199.04,270.6,199.03,272.29,200.12,272.29L200.12,272.29z"/>
		</g>
	</g>
	<g>
		<g>
			<path class="st12" d="M203.47,251.64c1.09,0,1.09-1.69,0-1.69C202.39,249.95,202.38,251.64,203.47,251.64L203.47,251.64z"/>
		</g>
	</g>
	<g>
		<g>
			<path class="st12" d="M210.35,255.55c1.09,0,1.09-1.69,0-1.69C209.27,253.86,209.27,255.55,210.35,255.55L210.35,255.55z"/>
		</g>
	</g>
	<g>
		<g>
			<path class="st12" d="M155.42,303.85c1.09,0,1.09-1.69,0-1.69C154.33,302.16,154.33,303.85,155.42,303.85L155.42,303.85z"/>
		</g>
	</g>
	<g>
		<g>
			<path class="st12" d="M205.52,258.54c1.09,0,1.09-1.69,0-1.69C204.43,256.85,204.43,258.54,205.52,258.54L205.52,258.54z"/>
		</g>
	</g>
	<g>
		<g>
			<path class="st12" d="M188.73,249.13c1.09,0,1.09-1.69,0-1.69C187.64,247.44,187.64,249.13,188.73,249.13L188.73,249.13z"/>
		</g>
	</g>
	<g>
		<g>
			<path class="st12" d="M193.38,248.38c1.09,0,1.09-1.69,0-1.69C192.29,246.7,192.29,248.38,193.38,248.38L193.38,248.38z"/>
		</g>
	</g>
	<g>
		<g>
			<path class="st12" d="M196.24,243.97c1.09,0,1.09-1.69,0-1.69C195.15,242.28,195.15,243.97,196.24,243.97L196.24,243.97z"/>
		</g>
	</g>
	<g>
		<g>
			<path class="st12" d="M213.48,244.17c1.09,0,1.09-1.69,0-1.69C212.39,242.49,212.39,244.17,213.48,244.17L213.48,244.17z"/>
		</g>
	</g>
	<g>
		<g>
			<path class="st12" d="M192.45,253.41c1.09,0,1.09-1.69,0-1.69C191.36,251.72,191.36,253.41,192.45,253.41L192.45,253.41z"/>
		</g>
	</g>
	<g>
		<g>
			<path class="st12" d="M187.05,254.52c1.09,0,1.09-1.69,0-1.69C185.97,252.84,185.96,254.52,187.05,254.52L187.05,254.52z"/>
		</g>
	</g>
	<g>
		<g>
			<path class="st12" d="M186.05,262.01c1.09,0,1.09-1.69,0-1.69C184.97,260.32,184.96,262.01,186.05,262.01L186.05,262.01z"/>
		</g>
	</g>
	<g>
		<g>
			<path class="st12" d="M187.05,266.24c1.09,0,1.09-1.69,0-1.69C185.97,264.56,185.96,266.24,187.05,266.24L187.05,266.24z"/>
		</g>
	</g>
	<g>
		<g>
			<path class="st12" d="M180.73,269.69c1.09,0,1.09-1.69,0-1.69C179.64,268,179.64,269.69,180.73,269.69L180.73,269.69z"/>
		</g>
	</g>
	<g>
		<g>
			<path class="st12" d="M182.22,278.34c1.09,0,1.09-1.69,0-1.69C181.13,276.65,181.13,278.34,182.22,278.34L182.22,278.34z"/>
		</g>
	</g>
	<g>
		<g>
			<path class="st12" d="M182.22,283.73c1.09,0,1.09-1.69,0-1.69C181.13,282.05,181.13,283.73,182.22,283.73L182.22,283.73z"/>
		</g>
	</g>
	<g>
		<g>
			<path class="st12" d="M172.79,286.35c1.09,0,1.09-1.69,0-1.69C171.7,284.66,171.7,286.35,172.79,286.35L172.79,286.35z"/>
		</g>
	</g>
	<g>
		<g>
			<path class="st12" d="M178.26,293.3c1.09,0,1.09-1.69,0-1.69C177.18,291.62,177.17,293.3,178.26,293.3L178.26,293.3z"/>
		</g>
	</g>
	<g>
		<g>
			<path class="st12" d="M172.79,296.21c1.09,0,1.09-1.69,0-1.69C171.7,294.52,171.7,296.21,172.79,296.21L172.79,296.21z"/>
		</g>
	</g>
	<g>
		<g>
			<path class="st12" d="M187.61,275.92c1.09,0,1.09-1.69,0-1.69C186.52,274.23,186.52,275.92,187.61,275.92L187.61,275.92z"/>
		</g>
	</g>
	<g>
		<g>
			<path class="st12" d="M194.49,279.83c1.09,0,1.09-1.69,0-1.69C193.41,278.14,193.41,279.83,194.49,279.83L194.49,279.83z"/>
		</g>
	</g>
	<g>
		<g>
			<path class="st12" d="M187.05,281.93c1.09,0,1.09-1.69,0-1.69C185.96,280.24,185.96,281.93,187.05,281.93L187.05,281.93z"/>
		</g>
	</g>
	<g>
		<g>
			<path class="st12" d="M175.03,265.24c1.09,0,1.09-1.69,0-1.69C173.94,263.56,173.94,265.24,175.03,265.24L175.03,265.24z"/>
		</g>
	</g>
	<g>
		<g>
			<path class="st12" d="M94.35,288.38c1.09,0,1.09-1.69,0-1.69C93.27,286.7,93.27,288.38,94.35,288.38L94.35,288.38z"/>
		</g>
	</g>
	<g>
		<g>
			<path class="st12" d="M94.35,292.85c1.09,0,1.09-1.69,0-1.69C93.27,291.16,93.27,292.85,94.35,292.85L94.35,292.85z"/>
		</g>
	</g>
	<g>
		<g>
			<path class="st12" d="M98.45,298.43c1.09,0,1.09-1.69,0-1.69C97.36,296.74,97.36,298.43,98.45,298.43L98.45,298.43z"/>
		</g>
	</g>
	<g>
		<g>
			<path class="st12" d="M72.59,260.85c1.09,0,1.09-1.69,0-1.69C71.5,259.16,71.5,260.85,72.59,260.85L72.59,260.85z"/>
		</g>
	</g>
	<g>
		<g>
			<path class="st12" d="M72.22,268.11c1.09,0,1.09-1.69,0-1.69C71.13,266.42,71.13,268.11,72.22,268.11L72.22,268.11z"/>
		</g>
	</g>
	<g>
		<g>
			<path class="st12" d="M88.73,289.85c1.09,0,1.09-1.69,0-1.69C87.65,288.16,87.65,289.85,88.73,289.85L88.73,289.85z"/>
		</g>
	</g>
	<g>
		<g>
			<path class="st12" d="M71.1,277.78c1.09,0,1.09-1.69,0-1.69C70.01,276.09,70.01,277.78,71.1,277.78L71.1,277.78z"/>
		</g>
	</g>
	<g>
		<g>
			<path class="st12" d="M80.77,285.97c1.09,0,1.09-1.69,0-1.69C79.69,284.28,79.69,285.97,80.77,285.97L80.77,285.97z"/>
		</g>
	</g>
	<g>
		<g>
			<path class="st12" d="M81.96,278.73c1.09,0,1.09-1.69,0-1.69C80.87,277.05,80.87,278.73,81.96,278.73L81.96,278.73z"/>
		</g>
	</g>
	<g>
		<g>
			<path class="st12" d="M85.84,275.16c1.09,0,1.09-1.69,0-1.69C84.75,273.48,84.75,275.16,85.84,275.16L85.84,275.16z"/>
		</g>
	</g>
</g>
<path class="st26" d="M32.6,173.02c-0.06-8.74-0.15-9.47-0.18-18.21c-0.03-9.01-0.01-18.01-0.01-27.3c0.82,0.55,1.49,1,2.38,1.59
	c4.16-13.26,3.32-26.51,7.72-40.52c0.66,3.86,1.2,7.04,1.9,11.18c4.06-8.92,12.79-17.1,16.66-25.59c1.54,3.02,3.35,1.66,5.09,0.75
	c6.66-3.48,11.29-8.04,17.94-11.58c0.35-0.19,0.74-0.43,0.98-0.8c3.83-5.78,8.9-2.16,14.05-4.34c4.99-2.12,12.05-2.68,17.31-2.53
	c0.47,0.01,1.02-0.19,1.4,0.08c2.25,1.52,3.71,0.3,4.8-2.67c-0.23-0.65-0.5-1.43-0.81-2.32c0.28-0.17,0.47-0.38,0.66-0.38
	c2.13-0.04,4.29-0.39,6.37,0.07c1.43,0.32,2.89,1.5,4.06,2.81c1.8,2.02,3.56,2.55,5.82,1.86c1.45-0.44,3.28-0.28,4.6,0.6
	c4.37,2.91,8.42,2.31,12.46-1.04c0.3-0.25,0.71-0.24,1.34-0.43c-1.16,2.11-2.16,3.91-3.15,5.71c3.42-2.14,4.93-9.26,10.01-6.6
	c-0.32,2.1-0.67,4.38-1.06,6.87c5.17,0.48,10.28-5.04,15.4-4.57c0.01,0.13,0.02,0.26,0.03,0.39c-1.95,0.61-3.9,1.22-5.95,1.86
	c0,1.79,0,3.54,0,5.67c1.9,0.48,3.88,1.53,5.79,1.34c4.01-0.38,5.54,3.96,7.84,7.07c1.15,1.56,2.61,2.87,4.1,3.65
	c3.39,1.78,20.88,3.17,24.55,4.81c-0.84,1.3-5.51,2.35-6.27,3.53c7.51,11.87,13.7,21.64,19.15,30.26c-1.08,0.11-1.96,0.2-3.09,0.31
	c3.87,11.3-2.31,22.46,1.56,33.76c-1.33-0.34-2.58-0.66-3.98-1.02c0.51,1.81,0.99,3.48,1.56,5.48c0.42-0.7,0.71-1.2,1.17-1.97
	c0.47,3.4,0.96,6.57,1.34,9.77c0.39,3.23,0.43-1.41,1.06,1.72c0.72,3.56-0.44,5.32-2.34,6.85c-0.4,0.32-0.73,0.82-1.39,1.57
	c-0.68-7.6-0.36-7.23-3.32-13.75c-3.35,1.02-3.35,1.02-4.61-3.46c-0.37-1.33-0.89-2.59-1.15-3.96c-0.31-1.64-0.59-2.62-2.06-1.81
	c-1.49,0.81-1.59-1.11-1.81-2.45c-0.64-3.95-1.36-7.88-1.82-11.87c-0.59-5.11-3.47-7.7-5.72-10.98c-0.3-0.44-1.16-0.29-1.73-0.17
	c-1.21,0.24-2.4,0.64-3.55,0.96c-0.17-0.35-0.35-0.57-0.32-0.7c1.7-8.46-2.76-13-5.9-18.3c-0.87-1.47-2.33-2.24-3.3-3.62
	c-2.13-3.02-2.47-7.18-5.45-5.81c-1.12,0.52-2.59,0.38-2.74-1.87c-0.26-3.99-4.59-11.28-6.44-12.25c-1.21-0.63-2.69-0.24-3.89-0.87
	c-2.33-1.22-4.55,0.17-6.99-1.4c-0.09,0.29-0.53,1.13-0.61,2.04c-0.33,3.34-1.56,6.93-3.69,6c-2.19-0.96-4.45,2.43-7.04,1.55
	c0.88,3.59,1.69,2.86,2.56,6.41c-2.52,0.72-4.92,1.67-7.36,1.96c-0.83,0.1-1.94-1.24-2.61-2.3c-1.21-1.9-2.33-2.87-3.87-0.81
	c-0.11,0.15-0.26,0.26-0.39,0.36c-3.31,2.45-3.31,0.45-2.44,5.54c0.07,0.41,0.07,0.86,0.14,1.81c-1.26-2.39-2.32-2.38-3.37-4.38
	c-0.29,0.37-0.57,0.74-0.86,1.11c0.89,1.66,1.63,1.55,2.7,2.92c2.18,2.77-1.06-0.03-1.75,3.71c-1.53-0.75-2.98-1.46-4.76-2.34
	c-0.98,7.28-1.95,5.44-2.91,12.59c-0.16-0.02-0.32-0.05-0.48-0.07c-0.19-3.93-1.55-1.86-1.52-5.78c0.03-3.21,0.06-1.34-2.03-1.44
	c-3.12-0.15-6.24-0.44-9.47-1.44c0.93-0.52,1.86-1.04,3.14-1.76c-3.67-2.71-3.98,0.59-7.45-1.61c-1.91-1.21-3.11-2.68-2.43-5.08
	c0.87-3.06,2.65-0.18,3.62-3.81c-2.61,0.78-6-7.51-8.62-6.73c-0.25-4.34-0.49-4.37-0.73-8.48c-4.78-0.82-9.25,0.51-13.05,4.4
	c-0.61,1.1-1.05,2.61-1.85,3.24c-4.13,3.31-11.38,7.31-15.53,10.59c-5.5,4.35-7.04,12.63-12.33,17.45c-1.53,1.39-2.5,4.36-3.35,6.86
	c-2.41,7.13-4.63,14.39-7.62,22.4c-0.41-1.14-0.81-2.28-1.38-3.89c-1.71,4.47-3.17,8.31-4.64,12.15c-0.96,2.52-1.77,5.2-2.93,7.51
	c-1.53,3.02-1.47-1.63-0.83,1.4c0.69,3.27-0.22,5.54-1.26,7.96c-0.71,1.65-1.58,3.17-2.37,4.75
	C33.04,173.14,32.82,173.08,32.6,173.02z"/>
</svg>
