<?xml version="1.0" encoding="utf-8"?>
<!-- Generator: Adobe Illustrator 23.0.1, SVG Export Plug-In . SVG Version: 6.00 Build 0)  -->
<svg version="1.1" id="Layer_1" xmlns="http://www.w3.org/2000/svg" xmlns:xlink="http://www.w3.org/1999/xlink" x="0px" y="0px"
	 viewBox="0 0 260 337" style="enable-background:new 0 0 260 337;" xml:space="preserve">
<style type="text/css">
	.st0{fill:#E2BDAC;stroke:#020202;stroke-width:3;stroke-miterlimit:10;}
	.st1{fill:none;stroke:#230100;stroke-width:3;stroke-linecap:round;stroke-linejoin:round;stroke-miterlimit:10;}
	.st2{fill:#FFFFFF;}
	.st3{fill:#738C80;}
	.st4{fill:#080607;}
	.st5{fill:#FBFBF2;}
	.st6{fill:#FFFFFF;stroke:#020202;stroke-width:3;stroke-miterlimit:10;}
	.st7{fill:#13232B;stroke:#000000;stroke-width:3;stroke-miterlimit:10;}
	.st8{fill:#00505D;stroke:#000000;stroke-width:3;stroke-miterlimit:10;}
	.st9{fill:#372C28;stroke:#020202;stroke-width:3;stroke-miterlimit:10;}
	.st10{fill:#CEA076;stroke:#000000;stroke-width:3;stroke-linecap:round;stroke-miterlimit:10;}
	.st11{fill:#603813;}
	.st12{fill:#2D1C17;}
	.st13{fill:#2D1C17;stroke:#000000;stroke-width:3;stroke-linecap:round;stroke-miterlimit:10;}
	.st14{opacity:0.5;}
	.st15{fill:#372C28;}
	.st16{fill:#826240;}
	.st17{opacity:0.2;}
	.st18{fill:#AA835F;stroke:#000000;stroke-width:3;stroke-linecap:round;stroke-miterlimit:10;}
	.st19{fill:none;stroke:#000000;stroke-width:3;stroke-linecap:round;stroke-miterlimit:10;}
	.st20{fill:#826240;stroke:#000000;stroke-linecap:round;stroke-miterlimit:10;}
	.st21{fill:#262528;}
	.st22{fill:none;stroke:#020202;stroke-width:3;stroke-linecap:round;stroke-linejoin:round;stroke-miterlimit:10;}
	.st23{fill:#68362A;}
	.st24{fill:#68362A;stroke:#000000;stroke-width:3;stroke-linecap:round;stroke-miterlimit:10;}
	.st25{fill:#230100;}
	.st26{fill:#603813;stroke:#000000;stroke-width:3;stroke-linecap:round;stroke-miterlimit:10;}
</style>
<g>
	<g>
		<g>
			<path class="st16" d="M178.77,144.11c-6.91,1.15-28.27,2.05-28.27,2.05l1.04,9.59c0,0,16.68-4.96,29.96-7.18
				c10.96-1.83,26.2,8.75,26.01,7.63C207.32,155.08,192.42,141.83,178.77,144.11z"/>
		</g>
	</g>
	<g>
		<g>
			<path class="st16" d="M81.23,144.11c6.91,1.15,28.27,2.05,28.27,2.05l-1.04,9.59c0,0-16.68-4.96-29.96-7.18
				c-10.96-1.83-26.2,8.75-26.01,7.63S67.58,141.83,81.23,144.11z"/>
		</g>
	</g>
</g>
<path class="st10" d="M234.93,223.45c-0.89-4.76-2.43-9.33-3.52-14.04c-1.28-5.51-1.85-16.41-2.76-27.09
	c0.91-10.67,1.48-21.57,2.76-27.09c1.09-4.7,2.64-9.28,3.52-14.04c0.85-4.56,1.09-9.23,1.32-13.89c0.81-16-4.42-23.58-13.22-36.95
	c-4.09-0.8-1.17-23.99-3.13-25.67c-3.96-3.37-20.52-3.53-25.33-2.01c-0.43,0.14-1.3-6.36-1.3-6.36
	c16.35-26.22-5.52-12.58-25.65-13.55c-0.56-0.45-1.1-0.91-1.64-1.39c-3.94-3.54-1.08-17.68-1.08-17.68s-9.51,8.2-10.78,9.2
	c-7.53,5.88-30.45-0.99-39.22,2.8c-5-5-24.51-11.11-25-12c-0.26,1.18,5.26,15.82,5,17c-0.52,0.21-4.48,0.8-5,1
	c-2.24,0.87-9.97-6.25-12-5c-5.16,2.31-6,19-6,19s-13-8-11.78,7.02c-1.02,1.1-9.58-0.19-12.88-1.98c0.74,5.59,1.48,11.19,2.22,16.78
	c-0.92,1.55-8.94,1.39-11.96-0.4c1.21,6.33,1.72,12.8,1.54,19.25c-7.75,14.87-15.1,31.03-15.35,37.16
	c-0.22,5.42,3.97,16.62,4.86,23.64c0.33,2.61-0.31,18.31,0.93,25.16c-1.24,6.85-0.6,22.56-0.93,25.16
	c-0.9,7.02-5.08,13.22-4.86,18.64c0.46,11.17,18.2,60.28,25.22,69.57c9.53,12.61,26.86,28.01,38,33c2.03,1.25,11.76-9.87,14-9
	c10.25,3.98,10.33,7.23,19,14c1.27,0.99,7-9,7-9l16,8c0,0,11.44-6.55,12-7c5.67-1.82,15,6,15,6s24.47-1.17,24-12
	c0,0,10.57-2.14,11-2c4.81,1.52,8.04-7.63,12-11c1.97-1.68,2.05-36.62,6.13-37.42c8.8-13.36,14.03-20.95,13.22-36.95
	C236.02,227.69,235.78,228.02,234.93,223.45z M162.85,285.24c-11.3,6.6-25.76,4.57-61.89-2.55c-2.54-1.66-10.66-3.37-18.56-4.84
	c0.47-6.52,1.46-12.99,2.99-19.34c0.89-3.73,2.16-4.69,5.27-6.93c3.97-2.85,23.22-7.59,25.3-7.36c7.47,0.82,14.78,3.03,22.29,3.23
	c7.21,0.2,14.41-1.46,21.59-0.76c7.17,0.7,14.84,1.72,16.49,8.74c0.69,2.95,0.23,6.02-0.16,9.03c-0.74,5.7,2.8,5.5,2.74,11.25
	C173.04,277.45,168.9,281.7,162.85,285.24z M215.69,241.87c-2.26,6.59-11.74,11.16-15.16,17.38c-1.26,2.29-3.5,10.27-5.64,12.46
	c-1.8-8.46-5.24-13.05-4.75-21.68c0.33-5.83,1.06-8.17-2.14-13.05c-3.25-4.95-9.61-3.81-15.51-4.39c-3.28-0.32-6.59-0.36-9.88-0.11
	c-6.34,0.47-8.71,1.31-14.72-0.76c-1.05-0.36-6.27-1.18-7.37-1.27c-1.38-0.11-2.73,0.37-4.02,0.88c-7.83,3.05-8.28,1.42-16.61,0.4
	c-1.38-0.17-10.35,2.09-11.69,2.42c-1.78,0.43-4.73-3.36-6.31-2.42c-4.84,2.87-9.51,1.82-14.95,3.25
	c-5.68,1.48-9.51,7.69-12.54,12.71c-4.83,8.02-8.86,16.51-12.02,25.32c-4.18-3.12-4.22-8.68-9.52-13.22
	c-2.09-1.79-7.76-8.8-8.73-11.52c-3.68-11.23-6.18-7.13-5.97-19.06c0.31-17.59-0.24-27.54-0.16-43.12c0.05,0.01,0.09,0.01,0.09,0.01
	c-0.02-1.28-0.04-2.53-0.05-3.74c0.01-1.21,0.03-2.45,0.05-3.74c0,0-0.03,0-0.09,0.01c-0.08-15.59,0.47-25.54,0.16-43.12
	c-0.21-11.94,2.3-12.83,5.97-24.06c0.97-2.72,6.64-9.73,8.73-11.52c6.47-5.55,5.09-12.63,13.02-14.91c4.16-1.2,12.8,1.11,22.01-1.28
	c0.07,5.18,11.41,2.01,10,7c7.05-6.96,9.29-9.83,16.82-16.27c0.59-0.1,1.18-0.2,1.75-0.29c0.34,3.9,7.69,16.37,11.43,17.56
	c0.99-3.72-1.91-16.09,0.3-19.25c1.21-0.14,3.84-0.41,3.84-0.42c5.99-0.59,7.38,7.04,12.13,8.74c0.17-2.09,1.71-3.99,3.71-4.61
	c1.47,3.42,5.45,15.58,9.02,14.54c1.09-0.32,0.79-9.16,1.63-9.93c2.01-1.87,3.91-3.86,5.71-5.93c5.76,1.72,26.21,7.6,27.73,8.83
	c2.02,1.63,7.27,14.38,8.57,16.74c3.42,6.22,12.9,10.79,15.16,17.38c3.61,10.53,3.49,44.15,3.87,64.46
	C219.19,201.73,219.31,231.34,215.69,241.87z"/>
</svg>
