<svg id="Layer_1" data-name="Layer 1" xmlns="http://www.w3.org/2000/svg" viewBox="0 0 260 337"><defs><style>.cls-1,.cls-2{fill:#2d1c17;}.cls-1{stroke:#000;stroke-linecap:round;stroke-miterlimit:10;stroke-width:3px;}.cls-3{opacity:0.5;}</style></defs><title>hair</title><path class="cls-1" d="M231.4194,88.6248c-4.089-.7958.5661-17.5351-3.3188-19.1509-1.5-.6237-3.17-.38-4.756-.6368a13.2713,13.2713,0,0,1-5.6759-2.8285,43.0846,43.0846,0,0,1-10.7272-11.973c-1.3835-2.2785-9.1074-4.7548-11.0764-6.43-3.9624-3.3708-9.61-2.5462-14.4213-1.0282-.4287.1352-14.6508,5.3587-14.6508,5.3587.8525-19.5685-17.3516-23.5756-29.1815-28.094s-24.75-3.8749-37.1691-2.1326a97.48,97.48,0,0,0-22.5156,5.42C67.1009,31.4184,52,39.5343,43.381,47.9335c-13.585,13.2377-20.02,20.8146-18.1058,40.6913-4.1845,10.189-3.2243,47.1125-3.6805,58.2859-.2215,5.4241,2.9654,16.6215,3.86,23.6449.3538,2.7771-4.4238,18.859-2.428,21.5629,3.6933,5.0035,4.0249,10.8791,5.6279,16.833.4661,1.7311,7.17.1937,7.17.1937-.3547-20.2329,1.6141-40.0466,1.2594-60.2794-.2093-11.9359-.374-24.1862,3.303-35.4149.9722-2.7205,12.3067-8.3738,14.4008-10.1682,6.4744-5.5477,5.09-9.6262,13.0241-11.9081,5.4228-1.56,22.9485-3.68,27.7694-6.83,36.13-7.112,84.0087,5.9021,96.4136,10.0855a18.1839,18.1839,0,0,1,5.7906,2.76c2.022,1.6275,3.3714,4.0521,4.6686,6.4128,3.4176,6.2195,2.8352,15.4391,6.2529,21.6586,3.312,6.0274,6.6429-.8714,8.906,5.7192,4.0333,11.7464,4.49,24.5589,4.9016,37.11.6118,18.6744-3.4883,37.1567-2.8764,55.8312l9.5913-2.2263a4.3491,4.3491,0,0,0,2.27-3.4209c.9508-10.9111-.0607-21.6846,1.1877-32.6164a152.0747,152.0747,0,0,1,2.6371-17.2265c1.0947-4.7042,2.6365-9.281,3.5232-14.0381a104.4959,104.4959,0,0,0,1.3224-13.8864C240.9775,124.7108,240.2152,101.9889,231.4194,88.6248Z"/><path class="cls-1" d="M65.8691,47.94a23.0345,23.0345,0,0,1,23.5326,21.59"/><path class="cls-1" d="M87.3625,45.774A22.6587,22.6587,0,0,1,107.076,66.9959"/><path class="cls-1" d="M106.8408,42.2609a25.0819,25.0819,0,0,1,11.7065,11.7715A42.1754,42.1754,0,0,1,122.556,70.36"/><path class="cls-2" d="M52.9567,165.2232c3.7269-2.788,6.815-2.88,12.0148-5.1457A60.23,60.23,0,0,1,95.66,155.1c10.0294,1.15,27.0467,13.1039,27.0467,13.1039h.8911s2.19-7.97,3.118-11.9963c.1938-.841-1.257-7.4639-6.7608-7.4639-17.9287,0-36.0406-4.5072-53.4445-.2012-1.391.3441-6.5545,4.2034-7.8009,5.581-3.3109,3.66-6.3528,4.4994-8.1394,9.1Z"/><path class="cls-2" d="M207.0433,165.2232c-3.7269-2.788-6.815-2.88-12.0148-5.1457A60.23,60.23,0,0,0,164.34,155.1c-10.0294,1.15-27.0467,13.1039-27.0467,13.1039h-.8911s-2.19-7.97-3.118-11.9963c-.1938-.841,1.257-7.4639,6.7608-7.4639,17.9287,0,36.0406-4.5072,53.4445-.2012,1.391.3441,6.5545,4.2034,7.8009,5.581,3.3109,3.66,6.3528,4.4994,8.1394,9.1Z"/><g class="cls-3"><path class="cls-2" d="M84.285,241.6218a1.5009,1.5009,0,0,0,0-3,1.5009,1.5009,0,0,0,0,3Z"/><path class="cls-2" d="M88.9362,240.8776a1.5009,1.5009,0,0,0,0-3,1.5009,1.5009,0,0,0,0,3Z"/><path class="cls-2" d="M93.7966,238.459a1.5009,1.5009,0,0,0,0-3,1.5009,1.5009,0,0,0,0,3Z"/><path class="cls-2" d="M93.1758,270.0055a1.5009,1.5009,0,0,0,0-3,1.5009,1.5009,0,0,0,0,3Z"/><path class="cls-2" d="M88.0059,245.9009a1.5009,1.5009,0,0,0,0-3,1.5009,1.5009,0,0,0,0,3Z"/><path class="cls-2" d="M82.6106,247.0172a1.5009,1.5009,0,0,0,0-3,1.5009,1.5009,0,0,0,0,3Z"/><path class="cls-2" d="M157.08,277.2148a1.5009,1.5009,0,0,0,0-3,1.5009,1.5009,0,0,0,0,3Z"/><path class="cls-2" d="M136.4781,242.0637a1.5009,1.5009,0,0,0,0-3,1.5009,1.5009,0,0,0,0,3Z"/><path class="cls-2" d="M117.285,282.18a1.5009,1.5009,0,0,0,0-3,1.5009,1.5009,0,0,0,0,3Z"/><path class="cls-2" d="M65.7734,260.8311a1.5009,1.5009,0,0,0,0-3,1.5009,1.5009,0,0,0,0,3Z"/><path class="cls-2" d="M86.7734,269.2264a1.5009,1.5009,0,0,0,0-3,1.5009,1.5009,0,0,0,0,3Z"/><path class="cls-2" d="M94.2152,277.04a1.5009,1.5009,0,0,0,0-3,1.5009,1.5009,0,0,0,0,3Z"/><path class="cls-2" d="M92.1687,284.7613a1.5009,1.5009,0,0,0,0-3,1.5009,1.5009,0,0,0,0,3Z"/><path class="cls-2" d="M88.82,286.0636a1.5009,1.5009,0,0,0,0-3,1.5009,1.5009,0,0,0,0,3Z"/><path class="cls-2" d="M55.7037,228.0172a1.5009,1.5009,0,0,0,0-3,1.5009,1.5009,0,0,0,0,3Z"/><path class="cls-2" d="M62.5874,231.9242a1.5009,1.5009,0,0,0,0-3,1.5009,1.5009,0,0,0,0,3Z"/><path class="cls-2" d="M62.8128,238.04a1.5009,1.5009,0,0,0,0-3,1.5009,1.5009,0,0,0,0,3Z"/><path class="cls-2" d="M58.1223,242.3427a1.5009,1.5009,0,0,0,0-3,1.5009,1.5009,0,0,0,0,3Z"/><path class="cls-2" d="M55.89,251.6451a1.5009,1.5009,0,0,0,0-3,1.5009,1.5009,0,0,0,0,3Z"/><path class="cls-2" d="M55.89,256.11a1.5009,1.5009,0,0,0,0-3,1.5009,1.5009,0,0,0,0,3Z"/><path class="cls-2" d="M59.9827,261.6915a1.5009,1.5009,0,0,0,0-3,1.5009,1.5009,0,0,0,0,3Z"/><path class="cls-2" d="M56.6733,232.8311a1.5009,1.5009,0,0,0,0-3,1.5009,1.5009,0,0,0,0,3Z"/><path class="cls-2" d="M68.7269,236.0172a1.5009,1.5009,0,0,0,0-3,1.5009,1.5009,0,0,0,0,3Z"/><path class="cls-2" d="M66.4944,241.1218a1.5009,1.5009,0,0,0,0-3,1.5009,1.5009,0,0,0,0,3Z"/><path class="cls-2" d="M64.2618,246.4358a1.5009,1.5009,0,0,0,0-3,1.5009,1.5009,0,0,0,0,3Z"/><path class="cls-2" d="M62.4407,252.773a1.5009,1.5009,0,0,0,0-3,1.5009,1.5009,0,0,0,0,3Z"/><path class="cls-2" d="M212.4779,240.1218a1.5009,1.5009,0,0,0,0-3,1.5009,1.5009,0,0,0,0,3Z"/><path class="cls-2" d="M66.1223,265.7846a1.5009,1.5009,0,0,0,0-3,1.5009,1.5009,0,0,0,0,3Z"/><path class="cls-2" d="M59.9827,248.3776a1.5009,1.5009,0,0,0,0-3,1.5009,1.5009,0,0,0,0,3Z"/><path class="cls-2" d="M75.9433,242.7962a1.5009,1.5009,0,0,0,0-3,1.5009,1.5009,0,0,0,0,3Z"/><path class="cls-2" d="M66.4944,249.8776a1.5009,1.5009,0,0,0,0-3,1.5009,1.5009,0,0,0,0,3Z"/><path class="cls-2" d="M62.0293,257.6916a1.5009,1.5009,0,0,0,0-3,1.5009,1.5009,0,0,0,0,3Z"/><path class="cls-2" d="M39.7825,220.2846a1.5009,1.5009,0,0,0,0-3,1.5009,1.5009,0,0,0,0,3Z"/><path class="cls-2" d="M46.6662,224.1916a1.5009,1.5009,0,0,0,0-3,1.5009,1.5009,0,0,0,0,3Z"/><path class="cls-2" d="M46.6662,230.1451a1.5009,1.5009,0,0,0,0-3,1.5009,1.5009,0,0,0,0,3Z"/><path class="cls-2" d="M42.2011,234.61a1.5009,1.5009,0,0,0,0-3,1.5009,1.5009,0,0,0,0,3Z"/><path class="cls-2" d="M50.5732,259.1916a1.5009,1.5009,0,0,0,0-3,1.5009,1.5009,0,0,0,0,3Z"/><path class="cls-2" d="M41.4175,229.7846a1.5009,1.5009,0,0,0,0-3,1.5009,1.5009,0,0,0,0,3Z"/><path class="cls-2" d="M43.65,241.6218a1.5009,1.5009,0,0,0,0-3,1.5009,1.5009,0,0,0,0,3Z"/><path class="cls-2" d="M54.2547,264.68a1.5009,1.5009,0,0,0,0-3,1.5009,1.5009,0,0,0,0,3Z"/><path class="cls-2" d="M50.5732,226.2614a1.5009,1.5009,0,0,0,0-3,1.5009,1.5009,0,0,0,0,3Z"/><path class="cls-2" d="M52.8058,230.8893a1.5009,1.5009,0,0,0,0-3,1.5009,1.5009,0,0,0,0,3Z"/><path class="cls-2" d="M48.3406,238.7032a1.5009,1.5009,0,0,0,0-3,1.5009,1.5009,0,0,0,0,3Z"/><path class="cls-2" d="M46.1081,248.0055a1.5009,1.5009,0,0,0,0-3,1.5009,1.5009,0,0,0,0,3Z"/><path class="cls-2" d="M46.1081,252.4706a1.5009,1.5009,0,0,0,0-3,1.5009,1.5009,0,0,0,0,3Z"/><path class="cls-2" d="M112.4781,301.0054a1.5009,1.5009,0,0,0,0-3,1.5009,1.5009,0,0,0,0,3Z"/><path class="cls-2" d="M54.4408,238.04a1.5009,1.5009,0,0,0,0-3,1.5009,1.5009,0,0,0,0,3Z"/><path class="cls-2" d="M50.5732,242.1451a1.5009,1.5009,0,0,0,0-3,1.5009,1.5009,0,0,0,0,3Z"/><path class="cls-2" d="M51.3568,254.2381a1.5009,1.5009,0,0,0,0-3,1.5009,1.5009,0,0,0,0,3Z"/><path class="cls-2" d="M59.7967,266.9939a1.5009,1.5009,0,0,0,0-3,1.5009,1.5009,0,0,0,0,3Z"/><path class="cls-2" d="M59.7967,271.459a1.5009,1.5009,0,0,0,0-3,1.5009,1.5009,0,0,0,0,3Z"/><path class="cls-2" d="M63.89,277.04a1.5009,1.5009,0,0,0,0-3,1.5009,1.5009,0,0,0,0,3Z"/><path class="cls-2" d="M72.0757,247.366a1.5009,1.5009,0,0,0,0-3,1.5009,1.5009,0,0,0,0,3Z"/><path class="cls-2" d="M79.5646,272.5172a1.5009,1.5009,0,0,0,0-3,1.5009,1.5009,0,0,0,0,3Z"/><path class="cls-2" d="M78.96,249.8776a1.5009,1.5009,0,0,0,0-3,1.5009,1.5009,0,0,0,0,3Z"/><path class="cls-2" d="M74.4943,261.6915a1.5009,1.5009,0,0,0,0-3,1.5009,1.5009,0,0,0,0,3Z"/><path class="cls-2" d="M74.9058,270.2613a1.5009,1.5009,0,0,0,0-3,1.5009,1.5009,0,0,0,0,3Z"/><path class="cls-2" d="M72.2618,275.459a1.5009,1.5009,0,0,0,0-3,1.5009,1.5009,0,0,0,0,3Z"/><path class="cls-2" d="M75.3548,279.04a1.5009,1.5009,0,0,0,0-3,1.5009,1.5009,0,0,0,0,3Z"/><path class="cls-2" d="M67.5712,256.1916a1.5009,1.5009,0,0,0,0-3,1.5009,1.5009,0,0,0,0,3Z"/><path class="cls-2" d="M78.1222,258.5288a1.5009,1.5009,0,0,0,0-3,1.5009,1.5009,0,0,0,0,3Z"/><path class="cls-2" d="M81.1616,265.959a1.5009,1.5009,0,0,0,0-3,1.5009,1.5009,0,0,0,0,3Z"/><path class="cls-2" d="M71.6643,252.773a1.5009,1.5009,0,0,0,0-3,1.5009,1.5009,0,0,0,0,3Z"/><path class="cls-2" d="M71.4246,282.25a1.5009,1.5009,0,0,0,0-3,1.5009,1.5009,0,0,0,0,3Z"/><path class="cls-2" d="M52.4246,246.7147a1.5009,1.5009,0,0,0,0-3,1.5009,1.5009,0,0,0,0,3Z"/><path class="cls-2" d="M125.2849,303.5054a1.5009,1.5009,0,0,0,0-3,1.5009,1.5009,0,0,0,0,3Z"/><path class="cls-2" d="M66.1687,228.4125a1.5009,1.5009,0,0,0,0-3,1.5009,1.5009,0,0,0,0,3Z"/><path class="cls-2" d="M66.0524,271.3194a1.5009,1.5009,0,0,0,0-3,1.5009,1.5009,0,0,0,0,3Z"/><path class="cls-2" d="M98.2779,288.1217a1.5009,1.5009,0,0,0,0-3,1.5009,1.5009,0,0,0,0,3Z"/><path class="cls-2" d="M131.7663,241.2613a1.5009,1.5009,0,0,0,0-3,1.5009,1.5009,0,0,0,0,3Z"/><path class="cls-2" d="M99.7268,240.9707a1.5009,1.5009,0,0,0,0-3,1.5009,1.5009,0,0,0,0,3Z"/><path class="cls-2" d="M104.378,240.2265a1.5009,1.5009,0,0,0,0-3,1.5009,1.5009,0,0,0,0,3Z"/><path class="cls-2" d="M172.8874,275.9241a1.5009,1.5009,0,0,0,0-3,1.5009,1.5009,0,0,0,0,3Z"/><path class="cls-2" d="M111.1815,238.54a1.5009,1.5009,0,0,0,0-3,1.5009,1.5009,0,0,0,0,3Z"/><path class="cls-2" d="M103.4478,245.25a1.5009,1.5009,0,0,0,0-3,1.5009,1.5009,0,0,0,0,3Z"/><path class="cls-2" d="M96.0524,245.366a1.5009,1.5009,0,0,0,0-3,1.5009,1.5009,0,0,0,0,3Z"/><path class="cls-2" d="M108.6035,242.3311a1.5009,1.5009,0,0,0,0-3,1.5009,1.5009,0,0,0,0,3Z"/><path class="cls-2" d="M87.7269,280.5288a1.5009,1.5009,0,0,0,0-3,1.5009,1.5009,0,0,0,0,3Z"/><path class="cls-2" d="M77.6571,232.3892a1.5009,1.5009,0,0,0,0-3,1.5009,1.5009,0,0,0,0,3Z"/><path class="cls-2" d="M107.6106,281.11a1.5009,1.5009,0,0,0,0-3,1.5009,1.5009,0,0,0,0,3Z"/><path class="cls-2" d="M97.6106,281.7613a1.5009,1.5009,0,0,0,0-3,1.5009,1.5009,0,0,0,0,3Z"/><path class="cls-2" d="M102.4943,277.6683a1.5009,1.5009,0,0,0,0-3,1.5009,1.5009,0,0,0,0,3Z"/><path class="cls-2" d="M83.4943,284.2729a1.5009,1.5009,0,0,0,0-3,1.5009,1.5009,0,0,0,0,3Z"/><path class="cls-2" d="M112.0292,285.0869a1.5009,1.5009,0,0,0,0-3,1.5009,1.5009,0,0,0,0,3Z"/><path class="cls-2" d="M116.0363,243.68a1.5009,1.5009,0,0,0,0-3,1.5009,1.5009,0,0,0,0,3Z"/><path class="cls-2" d="M168.3242,273.0055a1.5009,1.5009,0,0,0,0-3,1.5009,1.5009,0,0,0,0,3Z"/><path class="cls-2" d="M126.3081,286.2845a1.5009,1.5009,0,0,0,0-3,1.5009,1.5009,0,0,0,0,3Z"/><path class="cls-2" d="M130.9592,285.54a1.5009,1.5009,0,0,0,0-3,1.5009,1.5009,0,0,0,0,3Z"/><path class="cls-2" d="M150.8986,290.0054a1.5009,1.5009,0,0,0,0-3,1.5009,1.5009,0,0,0,0,3Z"/><path class="cls-2" d="M138.3476,287.7845a1.5009,1.5009,0,0,0,0-3,1.5009,1.5009,0,0,0,0,3Z"/><path class="cls-2" d="M129.029,292.5636a1.5009,1.5009,0,0,0,0-3,1.5009,1.5009,0,0,0,0,3Z"/><path class="cls-2" d="M116.9665,286.5054a1.5009,1.5009,0,0,0,0-3,1.5009,1.5009,0,0,0,0,3Z"/><path class="cls-2" d="M144.0664,303.0054a1.5009,1.5009,0,0,0,0-3,1.5009,1.5009,0,0,0,0,3Z"/><path class="cls-2" d="M142.6175,288.9938a1.5009,1.5009,0,0,0,0-3,1.5009,1.5009,0,0,0,0,3Z"/><path class="cls-2" d="M141.1685,298.3659a1.5009,1.5009,0,0,0,0-3,1.5009,1.5009,0,0,0,0,3Z"/><path class="cls-2" d="M108.5408,290.9473a1.5009,1.5009,0,0,0,0-3,1.5009,1.5009,0,0,0,0,3Z"/><path class="cls-2" d="M102.2152,300.3891a1.5009,1.5009,0,0,0,0-3,1.5009,1.5009,0,0,0,0,3Z"/><path class="cls-2" d="M100.89,293.1566a1.5009,1.5009,0,0,0,0-3,1.5009,1.5009,0,0,0,0,3Z"/><path class="cls-2" d="M166.3314,292.9706a1.5009,1.5009,0,0,0,0-3,1.5009,1.5009,0,0,0,0,3Z"/><path class="cls-2" d="M109.2849,297.6915a1.5009,1.5009,0,0,0,0-3,1.5009,1.5009,0,0,0,0,3Z"/><path class="cls-2" d="M147.9361,298.9938a1.5009,1.5009,0,0,0,0-3,1.5009,1.5009,0,0,0,0,3Z"/><path class="cls-2" d="M83.2849,236.3427a1.5009,1.5009,0,0,0,0-3,1.5009,1.5009,0,0,0,0,3Z"/><path class="cls-2" d="M173.1686,233.25a1.5009,1.5009,0,0,0,0-3,1.5009,1.5009,0,0,0,0,3Z"/><path class="cls-2" d="M202.5986,237.2613a1.5009,1.5009,0,0,0,0-3,1.5009,1.5009,0,0,0,0,3Z"/><path class="cls-2" d="M160.5549,290.54a1.5009,1.5009,0,0,0,0-3,1.5009,1.5009,0,0,0,0,3Z"/><path class="cls-2" d="M187.1059,245.04a1.5009,1.5009,0,0,0,0-3,1.5009,1.5009,0,0,0,0,3Z"/><path class="cls-2" d="M169.3364,240.5986a1.5009,1.5009,0,0,0,0-3,1.5009,1.5009,0,0,0,0,3Z"/><path class="cls-2" d="M165.2061,236.7846a1.5009,1.5009,0,0,0,0-3,1.5009,1.5009,0,0,0,0,3Z"/><path class="cls-2" d="M144.6337,243.8079a1.5009,1.5009,0,0,0,0-3,1.5009,1.5009,0,0,0,0,3Z"/><path class="cls-2" d="M122.3618,247.2148a1.5009,1.5009,0,0,0,0-3,1.5009,1.5009,0,0,0,0,3Z"/><path class="cls-2" d="M139.2384,246.4125a1.5009,1.5009,0,0,0,0-3,1.5009,1.5009,0,0,0,0,3Z"/><path class="cls-2" d="M125.2384,242.6451a1.5009,1.5009,0,0,0,0-3,1.5009,1.5009,0,0,0,0,3Z"/><path class="cls-2" d="M116.7268,295.3659a1.5009,1.5009,0,0,0,0-3,1.5009,1.5009,0,0,0,0,3Z"/><path class="cls-2" d="M118.2152,300.017a1.5009,1.5009,0,0,0,0-3,1.5009,1.5009,0,0,0,0,3Z"/><path class="cls-2" d="M90.3009,275.4241a1.5009,1.5009,0,0,0,0-3,1.5009,1.5009,0,0,0,0,3Z"/><path class="cls-2" d="M104.378,289.6217a1.5009,1.5009,0,0,0,0-3,1.5009,1.5009,0,0,0,0,3Z"/><path class="cls-2" d="M74.7965,238.6683a1.5009,1.5009,0,0,0,0-3,1.5009,1.5009,0,0,0,0,3Z"/><path class="cls-2" d="M172.4477,280.9706a1.5009,1.5009,0,0,0,0-3,1.5009,1.5009,0,0,0,0,3Z"/><path class="cls-2" d="M123.6105,297.5984a1.5009,1.5009,0,0,0,0-3,1.5009,1.5009,0,0,0,0,3Z"/><path class="cls-2" d="M133.4942,303.5054a1.5009,1.5009,0,0,0,0-3,1.5009,1.5009,0,0,0,0,3Z"/><path class="cls-2" d="M191.68,238.8311a1.5009,1.5009,0,0,0,0-3,1.5009,1.5009,0,0,0,0,3Z"/><path class="cls-2" d="M153.4173,296.0984a1.5009,1.5009,0,0,0,0-3,1.5009,1.5009,0,0,0,0,3Z"/><path class="cls-2" d="M150.2151,242.0637a1.5009,1.5009,0,0,0,0-3,1.5009,1.5009,0,0,0,0,3Z"/><path class="cls-2" d="M154.8663,241.32a1.5009,1.5009,0,0,0,0-3,1.5009,1.5009,0,0,0,0,3Z"/><path class="cls-2" d="M159.7267,238.9009a1.5009,1.5009,0,0,0,0-3,1.5009,1.5009,0,0,0,0,3Z"/><path class="cls-2" d="M160.5549,243.3776a1.5009,1.5009,0,0,0,0-3,1.5009,1.5009,0,0,0,0,3Z"/><path class="cls-2" d="M148.5407,246.459a1.5009,1.5009,0,0,0,0-3,1.5009,1.5009,0,0,0,0,3Z"/><path class="cls-2" d="M132.3547,295.4589a1.5009,1.5009,0,0,0,0-3,1.5009,1.5009,0,0,0,0,3Z"/><path class="cls-2" d="M196.7035,226.6683a1.5009,1.5009,0,0,0,0-3,1.5009,1.5009,0,0,0,0,3Z"/><path class="cls-2" d="M196.1454,266.4822a1.5009,1.5009,0,0,0,0-3,1.5009,1.5009,0,0,0,0,3Z"/><path class="cls-2" d="M165.0988,284.2031a1.5009,1.5009,0,0,0,0-3,1.5009,1.5009,0,0,0,0,3Z"/><path class="cls-2" d="M145.75,283.5054a1.5009,1.5009,0,0,0,0-3,1.5009,1.5009,0,0,0,0,3Z"/><path class="cls-2" d="M157.4315,283.8892a1.5009,1.5009,0,0,0,0-3,1.5009,1.5009,0,0,0,0,3Z"/><path class="cls-2" d="M183.7571,238.61a1.5009,1.5009,0,0,0,0-3,1.5009,1.5009,0,0,0,0,3Z"/><path class="cls-2" d="M182.7732,229.5056a1.5009,1.5009,0,0,0,0-3,1.5009,1.5009,0,0,0,0,3Z"/><path class="cls-2" d="M187.4244,240.8427a1.5009,1.5009,0,0,0,0-3,1.5009,1.5009,0,0,0,0,3Z"/><path class="cls-2" d="M189.2848,226.3428a1.5009,1.5009,0,0,0,0-3,1.5009,1.5009,0,0,0,0,3Z"/><path class="cls-2" d="M192.72,232.8311a1.5009,1.5009,0,0,0,0-3,1.5009,1.5009,0,0,0,0,3Z"/><path class="cls-2" d="M186.4941,233.7846a1.5009,1.5009,0,0,0,0-3,1.5009,1.5009,0,0,0,0,3Z"/><path class="cls-2" d="M178.2008,238.82a1.5009,1.5009,0,0,0,0-3,1.5009,1.5009,0,0,0,0,3Z"/><path class="cls-2" d="M181.0988,246.6218a1.5009,1.5009,0,0,0,0-3,1.5009,1.5009,0,0,0,0,3Z"/><path class="cls-2" d="M179.2616,252.5637a1.5009,1.5009,0,0,0,0-3,1.5009,1.5009,0,0,0,0,3Z"/><path class="cls-2" d="M165.2616,277.7148a1.5009,1.5009,0,0,0,0-3,1.5009,1.5009,0,0,0,0,3Z"/><path class="cls-2" d="M176.2616,260.11a1.5009,1.5009,0,0,0,0-3,1.5009,1.5009,0,0,0,0,3Z"/><path class="cls-2" d="M183.7034,271.9241a1.5009,1.5009,0,0,0,0-3,1.5009,1.5009,0,0,0,0,3Z"/><path class="cls-2" d="M181.6569,275.645a1.5009,1.5009,0,0,0,0-3,1.5009,1.5009,0,0,0,0,3Z"/><path class="cls-2" d="M179.3364,265.0753a1.5009,1.5009,0,0,0,0-3,1.5009,1.5009,0,0,0,0,3Z"/><path class="cls-2" d="M181.6569,256.2962a1.5009,1.5009,0,0,0,0-3,1.5009,1.5009,0,0,0,0,3Z"/><path class="cls-2" d="M162.0039,301.5054a1.5009,1.5009,0,0,0,0-3,1.5009,1.5009,0,0,0,0,3Z"/><path class="cls-2" d="M188.5406,262.8078a1.5009,1.5009,0,0,0,0-3,1.5009,1.5009,0,0,0,0,3Z"/><path class="cls-2" d="M192.4941,271.2613a1.5009,1.5009,0,0,0,0-3,1.5009,1.5009,0,0,0,0,3Z"/><path class="cls-2" d="M202.5871,225.5056a1.5009,1.5009,0,0,0,0-3,1.5009,1.5009,0,0,0,0,3Z"/><path class="cls-2" d="M209.2383,227.7614a1.5009,1.5009,0,0,0,0-3,1.5009,1.5009,0,0,0,0,3Z"/><path class="cls-2" d="M209.0987,222.3428a1.5009,1.5009,0,0,0,0-3,1.5009,1.5009,0,0,0,0,3Z"/><path class="cls-2" d="M214.2686,223.8428a1.5009,1.5009,0,0,0,0-3,1.5009,1.5009,0,0,0,0,3Z"/><path class="cls-2" d="M205.308,232.7846a1.5009,1.5009,0,0,0,0-3,1.5009,1.5009,0,0,0,0,3Z"/><path class="cls-2" d="M208.88,237.2614a1.5009,1.5009,0,0,0,0-3,1.5009,1.5009,0,0,0,0,3Z"/><path class="cls-2" d="M207.2383,251.5637a1.5009,1.5009,0,0,0,0-3,1.5009,1.5009,0,0,0,0,3Z"/><path class="cls-2" d="M205.8571,243.8311a1.5009,1.5009,0,0,0,0-3,1.5009,1.5009,0,0,0,0,3Z"/><path class="cls-2" d="M212.9269,231.3311a1.5009,1.5009,0,0,0,0-3,1.5009,1.5009,0,0,0,0,3Z"/><path class="cls-2" d="M200.9127,230.9009a1.5009,1.5009,0,0,0,0-3,1.5009,1.5009,0,0,0,0,3Z"/><path class="cls-2" d="M197.0665,237.1218a1.5009,1.5009,0,0,0,0-3,1.5009,1.5009,0,0,0,0,3Z"/><path class="cls-2" d="M200.9127,242.6218a1.5009,1.5009,0,0,0,0-3,1.5009,1.5009,0,0,0,0,3Z"/><path class="cls-2" d="M194.5871,250.0637a1.5009,1.5009,0,0,0,0-3,1.5009,1.5009,0,0,0,0,3Z"/><path class="cls-2" d="M196.0755,254.7148a1.5009,1.5009,0,0,0,0-3,1.5009,1.5009,0,0,0,0,3Z"/><path class="cls-2" d="M196.0755,260.11a1.5009,1.5009,0,0,0,0-3,1.5009,1.5009,0,0,0,0,3Z"/><path class="cls-2" d="M201.5173,264.9241a1.5009,1.5009,0,0,0,0-3,1.5009,1.5009,0,0,0,0,3Z"/><path class="cls-2" d="M201.4708,271.645a1.5009,1.5009,0,0,0,0-3,1.5009,1.5009,0,0,0,0,3Z"/><path class="cls-2" d="M198.122,272.9473a1.5009,1.5009,0,0,0,0-3,1.5009,1.5009,0,0,0,0,3Z"/><path class="cls-2" d="M201.4708,252.2962a1.5009,1.5009,0,0,0,0-3,1.5009,1.5009,0,0,0,0,3Z"/><path class="cls-2" d="M208.3545,256.2032a1.5009,1.5009,0,0,0,0-3,1.5009,1.5009,0,0,0,0,3Z"/><path class="cls-2" d="M153.4173,304.5054a1.5009,1.5009,0,0,0,0-3,1.5009,1.5009,0,0,0,0,3Z"/><path class="cls-2" d="M203.5173,259.1916a1.5009,1.5009,0,0,0,0-3,1.5009,1.5009,0,0,0,0,3Z"/><path class="cls-2" d="M186.7267,249.7846a1.5009,1.5009,0,0,0,0-3,1.5009,1.5009,0,0,0,0,3Z"/><path class="cls-2" d="M191.3778,249.04a1.5009,1.5009,0,0,0,0-3,1.5009,1.5009,0,0,0,0,3Z"/><path class="cls-2" d="M194.2383,244.6218a1.5009,1.5009,0,0,0,0-3,1.5009,1.5009,0,0,0,0,3Z"/><path class="cls-2" d="M211.4779,244.8311a1.5009,1.5009,0,0,0,0-3,1.5009,1.5009,0,0,0,0,3Z"/><path class="cls-2" d="M190.4476,254.0637a1.5009,1.5009,0,0,0,0-3,1.5009,1.5009,0,0,0,0,3Z"/><path class="cls-2" d="M185.0523,255.18a1.5009,1.5009,0,0,0,0-3,1.5009,1.5009,0,0,0,0,3Z"/><path class="cls-2" d="M184.0523,262.6683a1.5009,1.5009,0,0,0,0-3,1.5009,1.5009,0,0,0,0,3Z"/><path class="cls-2" d="M185.0523,266.9008a1.5009,1.5009,0,0,0,0-3,1.5009,1.5009,0,0,0,0,3Z"/><path class="cls-2" d="M178.7267,270.3427a1.5009,1.5009,0,0,0,0-3,1.5009,1.5009,0,0,0,0,3Z"/><path class="cls-2" d="M180.2151,278.9938a1.5009,1.5009,0,0,0,0-3,1.5009,1.5009,0,0,0,0,3Z"/><path class="cls-2" d="M180.2151,284.3892a1.5009,1.5009,0,0,0,0-3,1.5009,1.5009,0,0,0,0,3Z"/><path class="cls-2" d="M170.7853,287.0054a1.5009,1.5009,0,0,0,0-3,1.5009,1.5009,0,0,0,0,3Z"/><path class="cls-2" d="M176.2616,293.9589a1.5009,1.5009,0,0,0,0-3,1.5009,1.5009,0,0,0,0,3Z"/><path class="cls-2" d="M170.7853,296.8659a1.5009,1.5009,0,0,0,0-3,1.5009,1.5009,0,0,0,0,3Z"/><path class="cls-2" d="M185.61,276.5752a1.5009,1.5009,0,0,0,0-3,1.5009,1.5009,0,0,0,0,3Z"/><path class="cls-2" d="M192.4941,280.4822a1.5009,1.5009,0,0,0,0-3,1.5009,1.5009,0,0,0,0,3Z"/><path class="cls-2" d="M185.0452,282.5869a1.5009,1.5009,0,0,0,0-3,1.5009,1.5009,0,0,0,0,3Z"/><path class="cls-2" d="M173.029,265.9008a1.5009,1.5009,0,0,0,0-3,1.5009,1.5009,0,0,0,0,3Z"/><path class="cls-2" d="M92.3548,289.04a1.5009,1.5009,0,0,0,0-3,1.5009,1.5009,0,0,0,0,3Z"/><path class="cls-2" d="M92.3548,293.5054a1.5009,1.5009,0,0,0,0-3,1.5009,1.5009,0,0,0,0,3Z"/><path class="cls-2" d="M96.4478,299.0868a1.5009,1.5009,0,0,0,0-3,1.5009,1.5009,0,0,0,0,3Z"/><path class="cls-2" d="M70.5874,261.5055a1.5009,1.5009,0,0,0,0-3,1.5009,1.5009,0,0,0,0,3Z"/><path class="cls-2" d="M70.2153,268.7613a1.5009,1.5009,0,0,0,0-3,1.5009,1.5009,0,0,0,0,3Z"/><path class="cls-2" d="M86.734,290.5054a1.5009,1.5009,0,0,0,0-3,1.5009,1.5009,0,0,0,0,3Z"/><path class="cls-2" d="M69.099,278.4357a1.5009,1.5009,0,0,0,0-3,1.5009,1.5009,0,0,0,0,3Z"/><path class="cls-2" d="M78.7734,286.6217a1.5009,1.5009,0,0,0,0-3,1.5009,1.5009,0,0,0,0,3Z"/><path class="cls-2" d="M79.96,279.3892a1.5009,1.5009,0,0,0,0-3,1.5009,1.5009,0,0,0,0,3Z"/><path class="cls-2" d="M83.8361,275.8194a1.5009,1.5009,0,0,0,0-3,1.5009,1.5009,0,0,0,0,3Z"/></g></svg>