<svg id="Layer_1" data-name="Layer 1" xmlns="http://www.w3.org/2000/svg" viewBox="0 0 260 337"><defs><style>.cls-1{fill:#cea076;stroke:#000;stroke-linecap:round;stroke-miterlimit:10;stroke-width:3px;}.cls-2{fill:#826240;}</style></defs><title>hair</title><path class="cls-1" d="M235.9132,107.8366l-2.3291.91q-.37-.9525-.7866-1.8939l9.9414-12.5674-10.8952.5306c-.86.0419-1.9533-.0641-2.23-.88a2.0289,2.0289,0,0,1,.4166-1.6181q2.9052-4.8379,6.0591-9.5207c-4.1319.51-7.9139,2.3422-11.5181,4.4986q-1.0506-1.66-2.1394-3.38,1.0411-3.3908,2.0825-6.7814c.2289-.7456.3982-1.7015-.2165-2.1814a1.9649,1.9649,0,0,0-1.2342-.2746l-5.1545.0092a17.4944,17.4944,0,0,0-2.01-3.9835,5.7632,5.7632,0,0,0-3.2485-2.2433l-4.7366-7.4837c.76-1.1827,5.4348-2.2323,6.27-3.5323-2.9418-1.3185-14.7946-2.4721-21.1087-3.798-1.4467-7.51-10.5373-11.6807-21.1765-14.376V34.8964L177.85,33.04q-.0124-.1928-.0251-.3853c-5.1155-.4762-10.2309,5.0477-15.3979,4.5667.3822-2.4863.7331-4.7675,1.0556-6.8656-4.4551-2.3388-6.1615,2.8495-8.8206,5.6068-.1968-.0308-.3943-.0619-.59-.0924l2.5508-4.6307c-.6233.1914-1.0342.18-1.3365.4309-4.0322,3.35-8.0915,3.9433-12.457,1.0373a5.6575,5.6575,0,0,0-4.6023-.5988,6.0437,6.0437,0,0,1-1.7505.275,12.025,12.025,0,0,0-2.1628-.5567,7.2368,7.2368,0,0,1-1.9112-1.5816,8.58,8.58,0,0,0-4.0561-2.8061c-2.0733-.4631-4.2393-.1056-6.3655-.0695-.1921.0032-.3826.2145-.6579.38q.468,1.34.8112,2.3217c-1.0861,2.9636-2.5534,4.19-4.7995,2.6667-.3877-.2629-.9326-.0631-1.4048-.0762a59.2355,59.2355,0,0,0-7.5007.2841A27.88,27.88,0,0,1,105.51,23.29l-2.5613,6.9041a2.2068,2.2068,0,0,1-.6953,1.113c-1.1648.8039-2.3992-1.0206-2.4588-2.4345s-.2214-3.3235-1.6215-3.5286c-.1343,2.64-.4068,5.2716-.803,7.8848-2.0423-.225-5.0567.8015-8.7288,2.9333a12.2177,12.2177,0,0,1-.6807-1.5931c-.0078.6663.0071,1.3328.0079,1.9992-.0616.0371-.1226.0734-.1841.1111a6.4383,6.4383,0,0,0-1.6245,1.03,81.171,81.171,0,0,0-7.209,5.425c-4.4282,2.9425-8.291,6.1631-13.2925,8.78-1.7329.907-3.5515,2.2666-5.0879-.7511-3.87,8.4966-12.5923,16.669-16.6567,25.5929-.7046-4.1388-1.2461-7.32-1.9031-11.18-4.2981,13.6942-3.6028,26.6621-7.457,39.6252-.1321.269-.2618.5363-.3926.8045l-2.252-1.5052c0,.5332-.0007,1.0569-.0007,1.5883a53.3747,53.3747,0,0,0-12.165-4.659q5.1268,6.4826,10.6088,12.6732c-3.8134,8.4506-6.5268,15.7423-6.6767,19.4184-.2217,5.4241,3.9653,16.6215,4.86,23.6448.3538,2.7772-.4033,20.4421,1.2,26.396.4663,1.7311,8.3574,2.5025,8.3574,2.5025-.355-20.2328.4265-30.3554.0717-50.5882-.0087-.5149-.0112-1.0023-.01-1.4778.7109-1.7613,1.3186-3.6268,2.0024-5.4151,1.4683-3.84,2.9339-7.6821,4.6416-12.1537.5716,1.6085.9776,2.751,1.3838,3.8934,2.7608-7.4135,4.8672-14.1812,7.0782-20.7976,6.0073-5.4893,4.87-12.3081,12.6323-14.54,1.2763-.3671,3.635-.8321,6.5471-1.3682q-1.3912,4.0981-2.7827,8.1965a44.8113,44.8113,0,0,1,7.89-9.0371,3.5389,3.5389,0,0,1,.2149,2.97c1.4265-1.3351,2.894-2.6256,4.3818-3.8921,7.9766-1.4818,16.2444-3.2081,18.8166-4.8892,1.5494-.305,3.042-.5912,4.5093-.8689.1631,1.4473,1.18,2.4828,2.5928,3.3794,3.4673,2.2013,3.7761-1.0988,7.446,1.6107l-3.14,1.7579a37.48,37.48,0,0,0,9.4667,1.4351c2.0948.0992,2.0582-1.7676,2.03,1.4378-.0344,3.924,1.3283,1.8549,1.5193,5.7828l.4814.0687c.9651-7.1555,1.93-5.311,2.9121-12.5926l4.762,2.3378c.6909-3.7477,3.9265-.9415,1.7463-3.7136-1.0737-1.3652-1.81-1.26-2.6994-2.9152q.43-.553.86-1.1062c1.0542,1.9952,2.1087,1.99,3.37,4.3779-.07-.9568-.0664-1.3971-.1372-1.8121-.7029-4.1167-.8369-3.5942.8916-4.5436,2.1624-.1259,4.1748-.184,6.0642-.18.6787.9769,1.6262,2.0139,2.3638,1.9259a32.2613,32.2613,0,0,0,5.731-1.4652A54.3534,54.3534,0,0,1,162.8473,74.42c2.0209.6814,27.4094,7.8812,29.1162,9.255,1.0767.8666,3.0691,4.8865,4.8926,8.8125a16.4649,16.4649,0,0,1,.0073,7.0166c-.0268.1333.1553.3507.3218.7016.9225-.2564,1.8777-.5607,2.8464-.797.2022.4237.3736.7686.5036,1.0052,1.5657,2.8493,4.4031,5.352,7.2362,7.8613a14.1726,14.1726,0,0,1,.4145,2.13c.4612,3.9906,1.1836,7.9222,1.8233,11.8693.218,1.3454.3163,3.2673,1.8054,2.4542,1.4712-.8034,1.7529.1694,2.0628,1.8116.2578,1.3671.7751,2.6334,1.1479,3.9609,1.0447,3.7188,1.2251,4.35,3.17,3.8723,1.272,17.1466,1.0925,41.185,1.5243,54.36l6.5913-2.2263a4.3492,4.3492,0,0,0,2.27-3.4209c.9508-10.911,1.5114-22.1982,2.8249-27.8429,1.0947-4.7042,2.6364-9.281,3.5232-14.0381a104.4623,104.4623,0,0,0,1.3222-13.8864,44.8684,44.8684,0,0,0-1.6556-15.6558C235.0613,110.3966,235.5039,109.122,235.9132,107.8366Z"/><path class="cls-2" d="M178.7688,144.1144c-6.9067,1.1547-28.2731,2.0493-28.2731,2.0493l1.037,9.5881a301.6662,301.6662,0,0,1,29.9589-7.1833c10.9643-1.8331,26.1984,8.7485,26.011,7.6275S192.4236,141.8316,178.7688,144.1144Z"/><path class="cls-2" d="M81.2312,144.1144c6.9067,1.1547,28.2731,2.0493,28.2731,2.0493l-1.037,9.5881a301.6662,301.6662,0,0,0-29.9589-7.1833c-10.9643-1.8331-26.1984,8.7485-26.011,7.6275S67.5764,141.8316,81.2312,144.1144Z"/><rect x="63" y="194.2041" width="46" height="14" rx="7"/><rect x="151" y="194.2041" width="46" height="14" rx="7"/></svg>