<svg id="Layer_1" data-name="Layer 1" xmlns="http://www.w3.org/2000/svg" viewBox="0 0 260 337"><defs><style>.cls-1{fill:#aa835f;}.cls-1,.cls-2{stroke:#000;stroke-linecap:round;stroke-miterlimit:10;stroke-width:3px;}.cls-2{fill:none;}.cls-3{fill:#826240;}</style></defs><title>hair</title><path class="cls-1" d="M36.9667,90.3723c4.0891-.7958,16.0775-20.1427,18.0465-21.8178,3.9624-3.3708,5.6067-7.383,10.4186-5.8651.4287.1353,1.3023-6.3635,1.3023-6.3635-.8525-19.5685,44.7436-19.3542,56.5736-23.8726s29.5078,11.7967,37.1692,1.8675c4.2024-5.4463,25.3842,9.2014,44.3034,34.2336,7.0213,9.29,31.088,53.794,31.5441,64.9674.2215,5.4241-3.9653,16.6215-4.86,23.6449-.3539,2.7771.4031,20.442-1.2,26.3959-.466,1.7311-8.3571,2.5025-8.3571,2.5025.3547-20.2328-.4267-30.3554-.0721-50.5882.2094-11.9358-2.2974-12.834-5.9744-24.0627-.9722-2.72-6.6352-9.726-8.7293-11.52-6.4745-5.5478-5.09-12.6263-13.0242-14.9082-5.4227-1.56-30.247-4.87-35.0679-8.02-36.13-7.1119-49.4815-6.7293-61.8864-2.5459-2.0209.6815-27.4095,7.8812-29.1163,9.2551-2.022,1.6275-7.2743,14.3781-8.5716,16.7388-3.4176,6.2195-12.8957,10.7872-15.1588,17.3778-4.0334,11.7464-3.4134,52.2673-4.0252,70.9417l-6.5914-2.2263a4.3488,4.3488,0,0,1-2.27-3.4209c-.9508-10.911-1.5115-22.1982-2.8249-27.8429-1.0947-4.7042-2.6364-9.281-3.5232-14.0381a104.4792,104.4792,0,0,1-1.3223-13.8863C22.9416,111.322,28.1709,103.7365,36.9667,90.3723Z"/><path class="cls-2" d="M107.79,67.3021c-5.1488-14.6971,11.303-23.1753,13.3146-22.918"/><path class="cls-2" d="M92.6079,69.4142c-1.2358-2.7256-12.1758-7.7721-17.6515-6.8787"/><path d="M101.35,68.5545a27.1461,27.1461,0,0,0-6.446-14.7025c-1.27-1.4584-3.3849.6709-2.1213,2.1214A23.56,23.56,0,0,1,98.35,68.5545c.2426,1.8885,3.2457,1.9127,3,0Z"/><path d="M132.7934,66.7481c18.3158-9.5,41.832-5.5841,60.0652,1.9592,1.7822.7374,2.5592-2.164.7975-2.8928-19.0165-7.8674-43.3378-11.5317-62.3769-1.6568-1.7144.8892-.199,3.4789,1.5142,2.59Z"/><path d="M119.3432,65.9918c1.204-7.1324,12.9238-11.5884,18.8364-13.6644,5.71-2.0051,16.7729-6.0255,22.2473-2.194,1.5852,1.1095,3.0861-1.49,1.5142-2.59-3.3875-2.3709-7.6453-1.7476-11.5273-1.2244a65.6,65.6,0,0,0-14.638,3.7042c-6.6967,2.5573-17.96,7.0856-19.3254,15.1715-.3188,1.8885,2.5716,2.7,2.8928.7975Z"/><path class="cls-3" d="M80.1793,144.2187c7.0026,0,28.2241-2.6408,28.2241-2.6408l.5581,9.6279a301.6625,301.6625,0,0,0-30.7332-2.1451c-11.1166,0-24.3973,12.9487-24.3973,11.8122S66.335,144.2187,80.1793,144.2187Z"/><path class="cls-3" d="M179.8207,144.2187c-7.0026,0-28.2241-2.6408-28.2241-2.6408l-.5581,9.6279a301.6625,301.6625,0,0,1,30.7332-2.1451c11.1166,0,24.3973,12.9487,24.3973,11.8122S193.665,144.2187,179.8207,144.2187Z"/></svg>