<svg id="Layer_1" data-name="Layer 1" xmlns="http://www.w3.org/2000/svg" viewBox="0 0 260 337"><defs><style>.cls-1{fill:#603813;}.cls-2{fill:#cea076;stroke:#000;stroke-linecap:round;stroke-miterlimit:10;stroke-width:3px;}</style></defs><title>hair</title><path class="cls-1" d="M52.9567,165.2232c3.7269-2.788,6.815-2.88,12.0148-5.1457A60.23,60.23,0,0,1,95.66,155.1a41.9612,41.9612,0,0,1,18.0467,7.1039h.8911a22.2688,22.2688,0,0,0,2.118-5.9963c.1938-.841-1.257-7.4639-6.7608-7.4639-17.9287,0-26.0406-4.5072-43.4445-.2012-1.391.3441-6.5545,4.2034-7.8009,5.581-3.3109,3.66-6.3528,4.4994-8.1394,9.1Z"/><path class="cls-1" d="M207.3458,165.2232c-3.7269-2.788-6.8151-2.88-12.0148-5.1457A60.2308,60.2308,0,0,0,164.6425,155.1a41.9612,41.9612,0,0,0-18.0466,7.1039h-.8911a22.2706,22.2706,0,0,1-2.1181-5.9963c-.1938-.841,1.257-7.4639,6.7609-7.4639,17.9286,0,26.0406-4.5072,43.4445-.2012,1.3909.3441,6.5545,4.2034,7.8008,5.581,3.311,3.66,6.3529,4.4994,8.14,9.1Z"/><rect x="63" y="194.2041" width="46" height="14" rx="7"/><rect x="151" y="194.2041" width="46" height="14" rx="7"/><path class="cls-2" d="M236.3244,133.5218c-.4561-11.1734-24.5227-55.6776-31.544-64.9674C195.2462,55.94,182.2,47.08,171.0622,42.0871a40.5947,40.5947,0,0,0-6.5974-2.9581,112.7991,112.7991,0,0,1-28.5823-16.2285c-1.2708-.9921-2.6619-2.449-2.1458-3.9763a45.0836,45.0836,0,0,1-9.7173,12.4614c-.5315.4774-1.08.9369-1.6355,1.3873-13.094,4.1993-56.4816,4.4585-55.65,23.553,0,0-.8735,6.4988-1.3022,6.3635-4.8118-1.5179-6.4563,2.4943-10.4187,5.8651C53.0443,70.23,41.0558,89.5765,36.9667,90.3723c-8.7959,13.3642-14.0251,20.95-13.2178,36.9461a104.4791,104.4791,0,0,0,1.3223,13.8864c.8867,4.7571,2.4285,9.3339,3.5232,14.0381,1.3132,5.6447,1.874,16.9319,2.8247,27.8429a4.35,4.35,0,0,0,2.27,3.4209l6.5913,2.2263c.6118-18.6744-.0081-59.1953,4.0254-70.9417,2.2629-6.5907,11.7412-11.1583,15.1587-17.3778,1.2973-2.3607,6.55-15.1113,8.5717-16.7389,1.7066-1.3738,27.0952-8.5736,29.1162-9.255,12.4048-4.1834,25.7566-4.566,61.8863,2.5459,4.821,3.15,29.6452,6.46,35.0681,8.02,7.9346,2.2819,6.5495,9.36,13.0242,14.9081,2.094,1.7943,7.757,8.8,8.7292,11.52,3.677,11.2287,6.1838,12.1269,5.9744,24.0628-.3545,20.2328.4267,30.3554.072,50.5882,0,0,7.8911-.7714,8.3572-2.5025,1.603-5.9539.8462-23.6188,1.2-26.396C232.359,150.1433,236.5458,138.9459,236.3244,133.5218Z"/></svg>