<svg id="Layer_1" data-name="Layer 1" xmlns="http://www.w3.org/2000/svg" viewBox="0 0 260 337"><defs><style>.cls-1{fill:#262528;}.cls-2{fill:none;stroke:#020202;stroke-linecap:round;stroke-linejoin:round;stroke-width:3px;}</style></defs><title>hair</title><path class="cls-1" d="M129.8988,301.4865c-18.5787,0-35.1943-2.79-46.3025-7.1775a7.0437,7.0437,0,0,0-2.1419,4.7568c0,8.9129,21.6893,16.1383,48.4444,16.1383s48.4445-7.2254,48.4445-16.1383a7.0434,7.0434,0,0,0-2.142-4.7568C165.0932,298.6967,148.4776,301.4865,129.8988,301.4865Z"/><rect class="cls-1" x="122.2625" y="292.2041" width="15.2727" height="20" rx="6.4539"/><path class="cls-1" d="M178.7688,144.1144c-6.9067,1.1547-28.2731,2.0493-28.2731,2.0493l1.037,9.5881a301.6662,301.6662,0,0,1,29.9589-7.1833c10.9643-1.8331,26.1984,8.7485,26.011,7.6275S192.4236,141.8316,178.7688,144.1144Z"/><path class="cls-1" d="M81.2312,144.1144c6.9067,1.1547,28.2731,2.0493,28.2731,2.0493l-1.037,9.5881a301.6662,301.6662,0,0,0-29.9589-7.1833c-10.9643-1.8331-26.1984,8.7485-26.011,7.6275S67.5764,141.8316,81.2312,144.1144Z"/><path class="cls-1" d="M196.4582,65.2041C180.8239,54.361,152.51,49.2266,130,49.2051v-.001l-.0713,0-.0715,0v.001c-22.5105.0215-50.824,5.1559-66.4583,15.999-26.1118,18.11-32.5417,49.9209-32.5417,84.1428v37.3748l5.9426-1.713c-1.9009-12.3046.0991-26.3046,10.0991-34.3046-1.5-13.5,8.0813-31.5,8.0813-45.9756C65.3817,94.2213,100.93,93.1093,129.8571,93.2v0H130v0c28.9277-.09,64.4754,1.0218,74.877,11.529,0,14.4756,9.5813,32.4756,8.0813,45.9756,10,8,12,22,10.0991,34.3046L229,186.7217V149.3469C229,115.125,222.57,83.3137,196.4582,65.2041Z"/><path class="cls-2" d="M87.5,242.02a17.4763,17.4763,0,0,0,0,29.3681"/><path class="cls-2" d="M172.5,242.02a17.4763,17.4763,0,0,1,0,29.3681"/></svg>