<svg id="Layer_1" data-name="Layer 1" xmlns="http://www.w3.org/2000/svg" viewBox="0 0 260 337"><defs><style>.cls-1,.cls-2{fill:#372c28;}.cls-1{stroke:#020202;stroke-miterlimit:10;stroke-width:3px;}</style></defs><title>hair</title><path class="cls-1" d="M251.4513,162.7714a23.1336,23.1336,0,0,1-11.2482-11.6228,18.4379,18.4379,0,0,0,12.2524-1.9322l-8.7784-5.6747a5.1146,5.1146,0,0,1-2.4257-2.552c-.5957-2.047,1.4019-3.8123,2.948-5.28s2.716-4.2711.9516-5.4679c-.5478-.3715-1.2486-.45-1.8158-.7913-1.9962-1.2016-.9386-4.3988.8371-5.9074s4.1875-2.65,4.7939-4.9c-2.613-1.1053-4.0676-4.0451-4.2371-6.8773s.7079-5.6105,1.5749-8.3121A8.0153,8.0153,0,0,1,237.12,91.4527a3.45,3.45,0,0,0-3.3806.6086c.5935-6.0887-5.55-10.4372-10.9082-13.39q-.6059.96-1.2117,1.9194c-1.69-1.6781-3.49-6.1338-3.49-6.1338s4.5266-15.6667,3.0368-16.5814-4.34,3.5929-5.6061,5.0852c-2.3076-4.609-.3584-7.9431-4.186-11.3953-.7867,1.323-3.317,2.0554-4.1036,3.3784A27.1107,27.1107,0,0,0,203.3908,44.45c-1.3972-2.2149-5.0976-4.0562-6.126-1.6479-2.88-5.7776-8.5037-12.6718-14.1084-15.8754a2.9,2.9,0,0,0-.2681,3.9907,31.0285,31.0285,0,0,0-8.216-7.8977,6.2637,6.2637,0,0,0-4.3142-1.3641c-1.5235.2616-2.8039,2.0716-1.9947,3.3887-3.1338-1.6193-6.3537-3.2657-9.8564-3.6825s-7.4043.6507-9.4358,3.5345c-.4651.66-.8709,1.441-1.6124,1.7614-1.1651.5033-2.4278-.3814-3.3947-1.2033-3.3725-2.8664-6.98-5.7076-11.2738-6.78s-9.4589.1024-11.7977,3.86a6.2082,6.2082,0,0,0-9.3275-.9982,78.9366,78.9366,0,0,0-27.7694-2.2819c-.9241.0888-2.0162.3151-2.3663,1.1751-.2967.7293.1055,1.5343.2229,2.313.5307,3.5208-4.3476,5.0653-7.9,4.8239s-8.2723-.13-9.2365,3.2978c-.4053,1.441.0525,3.17-.8822,4.3392-1.7506,2.19-5.8814-.2213-7.91,1.7144,2.1238,6.0359-4.151,15.4627-10.437,16.6578-1.8421.35-4.1907.5382-4.8145,2.3063-.3459.98.042,2.0482.1245,3.0844.5982,7.5178-13.7657,10.2263-12.1306,17.5885.2605,1.1737.8423,2.67-.1357,3.3692-.7764.555-1.8255.0145-2.7707-.1181-2.9461-.4131.313,3.0945-.7271,5.8817s-7.5921,9.7752-7.7715,12.6636c-.0989,1.5905.87,3.0325,1.2513,4.58.7724,3.1294-.8915,6.29-2.4971,9.0849q-3.5932,6.255-7.1864,12.51c2.7649,1.2638,2.88,5.2313,1.7618,8.0584s-3.0512,5.5017-2.9419,8.54c.105,2.9208,2.0713,5.3811,3.4853,7.9389s2.2134,6.0318.2479,8.195c.706,7.21,6.7831,2.5755,11.1932,8.3226,1.0665,1.39,1.162,8.7907,2.2463,10.1669,1.3081,1.66,3.0246,14.4224,3.0246,14.4224l11.3488,6.3255,4.1395-12.9767s-2.1946-15.0349-3.0863-19.237c-1.5639-7.37-2.576-15.3171.4341-22.224,1.232-2.8265,3.09-5.3472,4.304-8.1816,2.4382-5.6935,2.114-12.2291,4.2331-18.0489,3.5928-9.866,23.9378-10.1174,24.3671-20.6084.045-1.1024.0143-2.3253.745-3.1518.8623-.9755,2.3618-.9437,3.6623-.8849,12.08.5465,14.3118-3.42,23.7723-10.9512,3.48,1.36,7.3425,1.2019,11.0748,1.024l45.8138-2.1841a5.37,5.37,0,0,1,3.4062.5957,9.3785,9.3785,0,0,1,1.7865,2.2691c1.7683,2.3669,4.914,3.1424,7.8033,3.76l20.3076,4.339a8.1989,8.1989,0,0,1,3.6458,1.4225c2.4549,2.0511,1.72,5.8913,1.2342,9.0532-.95,6.18.868,15.3577.868,15.3577s8.81-3.2756,9.3073,2.5675c1.1206,13.1574,6.3093,26.2238,9.5377,39.0282,1.0839,4.299,2.2937,8.636,2.2415,13.0694s-5.0278,11.8446-5.0278,11.8446l2.7087,6.1384s4.671-3.82,8.05-1.38,7.51,5.3334,11.3247,3.6556a5.6425,5.6425,0,0,0,3.2378-4.1829c-3.3933-3.9364-6.8751-10.4494-5.9123-15.5567a8.1044,8.1044,0,0,0,6.6037-2.901,3.74,3.74,0,0,1-2.9377-2.0688A23.65,23.65,0,0,0,251.4513,162.7714Z"/><path class="cls-2" d="M148.9809,145.1549a36.2348,36.2348,0,0,0,10.8308-2.8226c3.2759-1.4251,6.3544-3.34,9.78-4.3534a19.94,19.94,0,0,1,12.5068.43,50.2753,50.2753,0,0,0,5.6773,2.1837c1.3214.3162,2.6927.3872,4.0117.713,4.0239.9938,7.0716,4.1884,9.88,7.2369a3.5932,3.5932,0,0,1,1.2074,3.5968l-.4125,4.6086a1.01,1.01,0,0,1-.2761.7351c-.4453.35-1.029-.21-1.3156-.6986a19.5875,19.5875,0,0,0-4.4366-5.7035c-2.6364-2.08-6.0863-2.7436-9.39-3.3437-4.5088-.8188-15.2182-.5265-18.0912-.3533s-9.5458,3.5635-11.8754,4.5664a1.6918,1.6918,0,0,1-2.5105-.5563C153.321,149.8693,148.9809,145.1549,148.9809,145.1549Z"/><path class="cls-2" d="M111.0191,145.1549a36.2348,36.2348,0,0,1-10.8308-2.8226c-3.2759-1.4251-6.3544-3.34-9.78-4.3534a19.94,19.94,0,0,0-12.5068.43,50.2753,50.2753,0,0,1-5.6773,2.1837c-1.3214.3162-2.6927.3872-4.0117.713-4.0239.9938-7.0716,4.1884-9.88,7.2369A3.5932,3.5932,0,0,0,57.125,152.14l.4125,4.6086a1.01,1.01,0,0,0,.2761.7351c.4453.35,1.029-.21,1.3156-.6986a19.5875,19.5875,0,0,1,4.4366-5.7035c2.6364-2.08,6.0863-2.7436,9.39-3.3437,4.5088-.8188,15.2182-.5265,18.0912-.3533s9.5458,3.5635,11.8754,4.5664a1.6918,1.6918,0,0,0,2.51-.5563C106.679,149.8693,111.0191,145.1549,111.0191,145.1549Z"/><path class="cls-2" d="M133.0332,246.5125c2.8793-1.0612,7.93-1.6249,10.9506-2.1806,8.162-1.5016,14.4807-3.2966,21.7654-1.1239,2.3035.687,7.0582.5989,9.1083,1.6242,1.8331.9168,7.9926,6.6707,9.8256,7.5874,1.7934-2.929-4.468-9.4538-6.0874-12.0831a4.5314,4.5314,0,0,0-.9584-1.2131,7.1188,7.1188,0,0,0-3.66-1.04l-23.358-2.429a6.1919,6.1919,0,0,0-2.5282.0951,6.6768,6.6768,0,0,0-1.991,1.2158c-3.2609,2.5027-9.2683,4.3838-13.4736,5.3859a3.776,3.776,0,0,1,.2965,3.7756"/><path class="cls-2" d="M126.9668,246.5125c-2.8793-1.0612-7.93-1.6249-10.9506-2.1806-8.162-1.5016-14.4807-3.2966-21.7654-1.1239-2.3035.687-7.0582.5989-9.1083,1.6242-1.8331.9168-7.9926,6.6707-9.8256,7.5874-1.7934-2.929,4.468-9.4538,6.0874-12.0831a4.5314,4.5314,0,0,1,.9584-1.2131,7.1188,7.1188,0,0,1,3.66-1.04l23.358-2.429a6.1919,6.1919,0,0,1,2.5282.0951,6.6768,6.6768,0,0,1,1.991,1.2158c3.2609,2.5027,9.2683,4.3838,13.4736,5.3859a3.776,3.776,0,0,0-.2965,3.7756"/><path class="cls-2" d="M95.7443,294.3091s.53,9.13,1.0444,14.5687c.0344.363.1082.785.4316.9535.7719.4019,1.5-1.1581,2.31-.8394.1362,1.1131,4.2193,2.0905,4.2193,2.0905s5.8492,1.3082,6.4879,2.434c.2894.51.2117,1.1681.5046,1.6762.5452.946,1.9279.8313,2.9192,1.289a11.8206,11.8206,0,0,1,3.358,1.9563,17.6765,17.6765,0,0,0,2.7082,1.3563c2.224,1.2308,1.326,2.9686,3.603,4.0986,2.0888,1.0365,7.8331-.1515,7.8331-.1515s3.2274,1.0711,3.2062,1.5242c-.0148.5634.8863.4408,1.345.1133,2.8079-2.0052,1.3462-3.1752,4.1542-5.18a.84.84,0,0,0,.5091,1.0677,2.4367,2.4367,0,0,0,1.3114.0386l4.6056-.7124a23.5622,23.5622,0,0,0,6.2744-1.5715c1.9462-.8914,3.7159-2.3344,5.8447-2.5592a6.4476,6.4476,0,0,0,1.9505-.288c1.1535-.5073,1.5592-1.9165,1.7665-3.1594.9013-5.4054,2.1246-16.1935,2.1246-16.1935l-4.1162-.4883s-4.3881,3.4838-6.9788,5.83a2.1543,2.1543,0,0,1-1.4063.7322c-.7706-.0241-1.2477-.807-1.7579-1.385-1.6043-1.8172-4.338-1.9653-6.762-1.98-2.4645-.015-5.0134-.0135-7.2708.9754-1.2988.5689-2.7817,1.4577-4.008.746a6.7141,6.7141,0,0,1-1.139-1.0563c-2.2059-2.0917-5.7365-1.0129-8.7546-.649a2.6612,2.6612,0,0,1-1.7438-.22,5.0015,5.0015,0,0,1-.88-.8923c-1.729-1.833-4.7892-1.2082-7.0286-.0532a2.7918,2.7918,0,0,1-2.8239.2483c-2.1468-.6372-11.5217-5.2623-11.5217-5.2623Z"/></svg>