<svg id="Layer_1" data-name="Layer 1" xmlns="http://www.w3.org/2000/svg" viewBox="0 0 260 337"><defs><style>.cls-1,.cls-2{fill:#68362a;}.cls-2{stroke:#000;stroke-miterlimit:10;}.cls-2,.cls-3{stroke-linecap:round;stroke-width:3px;}.cls-3{fill:none;stroke:#230100;stroke-linejoin:round;}.cls-4{fill:#230100;}</style></defs><title>hair</title><path class="cls-1" d="M112.9822,151.5327c-1.9371-1.8481-4.1885-3.62-4.9707-6.1792a3.9161,3.9161,0,0,0-.4722-1.2026,2.7421,2.7421,0,0,0-1.2681-.8281c-4.5888-1.8042-9.7348-1.3418-14.5967-.5157a107.3781,107.3781,0,0,0-17.3989,4.481,8.9674,8.9674,0,0,0-2.4912,1.1826c-.91.6846-6.918,6.5762-8.1528,8.5459a92.5143,92.5143,0,0,1,9.3217-5.9111,5.2,5.2,0,0,1,2.0337-.1436l30.93,1.91c1.4985.0923,7.5127,2.208,9.7075,4.581l.6245-.9111A10.64,10.64,0,0,0,112.9822,151.5327Z"/><path class="cls-1" d="M147.0178,151.5327c1.9371-1.8481,4.1885-3.62,4.9707-6.1792a3.9161,3.9161,0,0,1,.4722-1.2026,2.7421,2.7421,0,0,1,1.2681-.8281c4.5888-1.8042,9.7348-1.3418,14.5967-.5157a107.3781,107.3781,0,0,1,17.3989,4.481,8.9674,8.9674,0,0,1,2.4912,1.1826c.91.6846,6.918,6.5762,8.1528,8.5459a92.5143,92.5143,0,0,0-9.3217-5.9111,5.2,5.2,0,0,0-2.0337-.1436l-30.93,1.91c-1.4985.0923-7.5127,2.208-9.7075,4.581l-.6245-.9111A10.64,10.64,0,0,1,147.0178,151.5327Z"/><path class="cls-2" d="M234.59,75.5069c-5.755-12.2477-29.12-19.4008-41.3833-16.751,3.4146-4.3211,4.0535-10.4394,4.54-16.1492.31-3.6522-19.805-8.0152-21.1466-11.37-1.2992-3.25-5.6171,8.5594-64.2937,8.5594-88.0525,0-93.1091,83.9621-93.1091,104.05s8.1413,34.9381,14.781,42.2788l3.5171-2.37a24.5128,24.5128,0,0,1,2.9435-16.9924c2.3268-3.8564,5.67-6.8063,8.4324-10.2954,8.005-10.1133,10.1518-32.3967,6.1737-45.0894,11.6626-.3634,36.4321-16.6512,37.6209-19.8078,12.56,1.3649,9.7238,3.2872,22.1329,5.8207s44.8329-15.8524,55.367-23.5257a59.9845,59.9845,0,0,1-10.2207,31.3509c5.1863-3.7646,11.6361-4.5143,17.5366-6.6385,4.972-1.79,10.0558-5.3195,11.9344-10.46q-2.5469,10.9741-5.8675,21.7039A140.474,140.474,0,0,1,204.393,90.9286l.83.28c-3.6641,11.7482-7.0894,24.5588-3.6146,36.3766,4.2915,14.5952,21.6159,29.19,23.9491,44.3183,10.5111-15.9086,13.6668-36.2975,14.581-55.9643C240.7792,102.1606,240.3446,87.7547,234.59,75.5069Z"/><path class="cls-3" d="M90.9034,219.14a24.84,24.84,0,0,1-12.0651,14.476"/><path class="cls-3" d="M169.0966,219.14a24.84,24.84,0,0,0,12.0651,14.476"/><path class="cls-4" d="M142.9315,290.7031c-6.7487-7.15-19.1144-7.15-25.863,0-1.3248,1.4035.7927,3.5289,2.1213,2.1214a15.2448,15.2448,0,0,1,21.62,0c1.328,1.4069,3.4466-.7173,2.1213-2.1214Z"/></svg>