<svg id="Layer_1" data-name="Layer 1" xmlns="http://www.w3.org/2000/svg" viewBox="0 0 350 290"><defs>
  <style>
    .secondary{fill:#13232b;}
    .secondary,.primary{stroke:#000;
    stroke-miterlimit:10;stroke-width:3px;}
    .primary{fill:#00505d;}
  </style>
</defs>
  <title>svgs</title><path class="secondary" d="M11.4672,151.9306h62.251a0,0,0,0,1,0,0v24.95a0,0,0,0,1,0,0h-55.32a6.9305,6.9305,0,0,1-6.9305-6.9305V151.9306a0,0,0,0,1,0,0Z"/><path class="secondary" d="M283.2124,151.9306h55.32a0,0,0,0,1,0,0v24.95a0,0,0,0,1,0,0h-62.251a0,0,0,0,1,0,0V158.8611A6.9305,6.9305,0,0,1,283.2124,151.9306Z" transform="translate(614.8146 328.811) rotate(-180)"/><path class="primary" d="M276.2819,285.7617V151.9306h66.533a3.4653,3.4653,0,0,0,3.4653-3.4653V33.4215a10,10,0,0,0-8.1144-9.8207l-63.82-12.2541L246.0717,5.9179a9.9977,9.9977,0,0,0-9.144,2.9419L175,74.2058,113.0723,8.86a10,10,0,0,0-9.144-2.9419L75.6544,11.3467l-63.82,12.2541A10,10,0,0,0,3.72,33.4214V148.4653a3.4653,3.4653,0,0,0,3.4652,3.4653H73.7181V285.7617"/><path class="secondary" d="M236.9277,8.86,175,74.2058,113.0723,8.86a10,10,0,0,0-9.144-2.9419L75.6544,11.3467l79.4582,83.8441,12.629,13.3261a10,10,0,0,0,14.5168,0l12.6289-13.3261,79.4583-83.8441L246.0717,5.9179A10,10,0,0,0,236.9277,8.86Z"/></svg>
